<svg xmlns="http://www.w3.org/2000/svg" viewBox="16 -12 992 792" version="1.1"><g stroke="none" stroke-width="1" fill="none" fill-rule="evenodd"><g transform="translate(27.9, -0.5)" fill="#000"><path d="M905.6,205.0 C903.1,205.5 900.7,206.3 898.2,206.8 C895.2,207.3 892.2,207.9 889.2,208.3 C887.2,208.6 885.3,209.1 884.0,210.8 C881.5,213.9 879.0,219.3 882.4,222.7 C884.0,224.3 886.9,223.8 888.9,224.4 C891.2,225.1 893.3,226.0 895.8,226.3 C907.0,227.7 918.1,230.4 929.1,233.1 C934.1,234.4 939.1,236.1 943.9,238.0 C946.4,239.0 948.8,240.1 951.0,241.6 C952.8,242.9 955.0,244.1 956.5,245.8 C950.5,246.9 943.7,247.0 937.7,246.0 C934.7,245.4 931.7,245.6 928.6,245.4 C925.6,245.1 922.6,244.9 919.5,244.6 C916.6,244.4 913.6,244.1 910.7,243.6 C909.6,243.5 908.5,243.3 907.4,243.4 C906.8,243.5 906.4,243.7 905.8,243.6 C905.3,243.5 904.8,243.1 904.3,242.9 C902.0,242.2 899.7,242.3 897.3,242.2 C895.6,242.1 893.7,241.6 892.0,241.9 C888.9,242.6 887.5,246.9 886.8,249.6 C886.3,251.3 886.7,253.3 887.2,255.0 C887.8,256.9 889.0,256.8 890.5,257.7 C892.7,258.9 894.6,260.3 896.9,261.2 C898.9,262.0 900.9,262.7 902.9,263.6 C907.2,265.4 911.8,267.1 915.8,269.4 C918.0,270.7 920.1,272.0 922.4,273.1 C924.5,274.1 926.5,275.3 928.4,276.6 C932.2,279.3 935.6,282.6 938.4,286.3 C937.1,286.3 936.0,286.5 934.7,286.0 C933.2,285.5 931.7,284.6 930.1,284.1 C927.1,283.2 924.2,282.3 921.2,281.2 C918.2,280.1 915.2,279.1 912.2,278.2 C910.6,277.7 909.0,277.5 907.5,277.2 C906.1,276.9 904.8,276.2 903.5,275.7 C897.2,273.2 890.5,272.0 883.9,270.1 C877.6,268.4 871.3,266.5 864.8,265.3 C861.8,264.7 858.8,264.1 855.7,263.7 C852.7,263.3 850.1,263.7 847.2,264.5 C844.2,265.3 841.4,266.0 838.5,267.3 C836.5,268.2 833.4,269.0 831.8,270.6 C830.8,271.5 830.2,272.5 829.0,273.1 C828.0,273.7 827.0,274.0 826.0,274.4 C823.7,275.2 821.6,276.3 819.3,277.2 C817.9,277.7 816.4,278.1 814.9,278.2 C813.4,278.3 812.9,278.7 811.6,279.3 C809.6,280.3 807.3,280.8 805.2,281.4 C803.0,282.1 800.6,283.9 798.3,283.1 C796.0,282.3 794.6,279.4 793.2,277.6 C789.7,272.8 786.6,268.1 784.6,262.5 C782.6,256.6 780.6,250.6 778.5,244.6 C777.5,241.5 776.4,238.4 775.3,235.3 C774.8,233.6 773.5,231.7 774.9,230.1 C776.4,228.3 777.0,225.4 778.6,223.3 C780.2,221.3 782.0,219.4 783.7,217.4 C784.7,216.3 785.7,215.1 786.6,213.9 C787.3,212.8 787.8,211.6 788.6,210.7 C789.4,209.8 790.5,209.3 791.3,208.5 C792.1,207.7 792.9,206.6 793.7,205.7 C795.8,203.3 797.8,200.7 800.0,198.4 C801.9,196.5 804.0,194.8 805.9,192.9 C810.0,188.8 814.4,185.0 818.7,181.1 C822.8,177.3 827.1,173.7 831.1,169.8 C834.9,166.1 839.5,163.2 843.7,160.1 C848.4,156.8 852.9,153.2 857.9,150.4 C862.7,147.7 867.6,146.9 872.9,146.1 C872.4,147.1 872.0,148.2 871.3,149.2 C870.3,150.6 868.9,151.8 867.7,153.1 C865.3,155.7 862.9,158.3 860.5,160.8 C855.8,165.8 850.9,170.6 846.3,175.8 C842.7,179.9 839.9,184.1 838.4,189.4 C837.6,192.2 837.2,195.2 838.9,197.8 C840.2,199.7 842.3,199.6 844.5,199.4 C850.0,198.9 855.6,197.0 861.1,196.0 C867.2,194.9 873.4,194.6 879.6,194.0 C882.7,193.7 885.8,192.8 888.9,192.6 C890.3,192.5 891.7,192.8 893.1,192.6 C894.4,192.5 895.8,192.2 897.2,191.9 C900.1,191.4 902.7,191.1 905.6,191.5 C908.5,191.9 911.3,191.6 914.2,191.3 C920.3,190.8 926.6,191.5 932.7,192.1 C938.5,192.8 944.3,193.5 950.0,194.9 C944.0,196.4 938.0,197.9 932.0,199.3 C925.9,200.7 919.6,201.7 913.6,203.5 C911.0,204.3 908.3,204.4 905.6,205.0 L905.6,205.0 Z M433.8,331.2 C434.5,328.9 435.1,326.3 436.0,324.0 C436.2,323.4 436.5,323.0 436.8,322.6 C436.2,323.5 435.8,324.5 435.4,325.7 C434.9,327.6 434.4,329.4 433.8,331.2 L433.8,331.2 Z M432.5,333.7 C432.7,333.4 432.8,333.1 433.0,332.8 C432.8,333.1 432.7,333.4 432.5,333.7 L432.5,333.7 Z M432.0,334.8 C432.1,334.6 432.3,334.3 432.4,334.0 C432.3,334.3 432.1,334.6 432.0,334.8 L432.0,334.8 Z M433.7,331.7 C433.5,332.0 433.3,332.3 433.1,332.6 C433.3,332.3 433.5,332.0 433.7,331.7 L433.7,331.7 Z M798.5,309.6 C796.2,311.1 793.9,312.0 791.9,314.1 C787.5,318.9 782.8,323.3 778.6,328.2 C776.9,330.2 776.0,332.6 774.1,334.4 C772.0,336.5 769.3,338.1 766.9,339.8 C761.5,343.6 756.1,347.7 750.4,351.0 C749.1,351.8 747.8,352.5 746.5,353.2 C745.6,353.6 744.5,353.9 743.8,354.5 C743.0,355.1 742.7,356.0 741.9,356.5 C741.4,357.0 740.7,357.3 740.1,357.7 C735.0,360.9 730.0,364.0 724.9,367.0 C720.0,370.0 715.0,373.1 710.1,376.3 C707.5,377.9 705.1,379.8 702.5,381.5 C700.4,382.8 698.2,384.1 696.1,385.5 C693.9,387.0 691.9,388.5 689.5,389.7 C687.1,390.8 684.7,391.8 682.4,392.9 C681.0,393.6 679.8,394.4 678.5,395.2 C677.7,395.7 676.9,395.7 676.0,396.0 C673.3,396.9 670.9,398.5 668.2,399.3 C656.7,402.9 645.7,397.8 635.7,392.5 C630.7,389.8 626.1,386.3 621.3,383.2 C619.2,381.9 616.6,380.9 614.7,379.4 C613.7,378.6 613.3,377.8 612.2,377.1 C611.2,376.6 610.2,376.0 609.3,375.3 C604.8,371.7 600.5,368.1 596.4,364.0 C594.2,361.7 592.0,359.5 589.8,357.2 C588.1,355.4 586.8,353.2 585.2,351.3 C581.5,346.6 577.8,341.9 574.2,337.2 C572.4,334.9 570.7,332.6 568.9,330.3 C567.7,328.7 565.9,327.2 565.5,325.2 C565.2,323.4 566.2,321.7 567.1,320.2 C568.4,317.9 569.7,315.6 570.6,313.1 C571.9,309.4 574.0,302.3 569.9,299.6 C568.4,302.1 566.5,304.3 564.9,306.7 C563.2,309.1 562.5,312.2 560.6,314.4 C558.5,316.7 555.8,318.3 553.6,320.5 C551.5,322.7 549.5,325.1 547.4,327.4 C545.2,329.8 542.9,332.0 540.6,334.3 C538.5,336.4 536.0,338.2 533.6,340.0 C531.0,341.9 528.4,343.6 525.7,345.2 C524.5,345.9 523.3,346.7 522.0,347.2 C520.6,347.7 519.4,348.0 518.1,348.7 C512.7,351.5 507.2,354.1 501.8,356.8 C500.3,357.5 498.7,358.5 497.2,358.8 C496.6,359.0 496.2,358.9 495.5,359.1 C494.8,359.3 494.1,359.7 493.5,360.0 C490.7,361.2 487.8,362.2 484.9,363.2 C478.8,365.2 472.7,367.0 466.7,369.3 C461.0,371.3 455.6,373.6 449.8,375.2 C444.1,376.8 438.1,377.0 432.2,377.6 C430.7,377.8 428.8,377.6 427.3,378.1 C425.9,378.4 425.2,378.7 423.7,378.6 C421.1,378.4 418.6,378.9 416.0,379.3 C420.0,371.5 422.0,362.6 424.9,354.4 C425.7,352.2 426.6,350.2 427.2,348.0 C427.8,346.0 428.6,344.1 429.6,342.3 C430.8,340.1 431.1,337.5 431.9,335.1 C431.3,337.0 431.0,339.0 430.4,340.8 C431.2,339.3 432.1,337.7 432.9,336.1 C433.7,334.5 433.7,333.5 433.7,331.7 C435.8,332.0 435.9,329.8 436.2,328.2 C436.7,325.8 437.3,323.5 437.8,321.1 C438.0,320.6 437.9,319.7 438.1,319.1 C438.2,318.4 438.5,317.7 438.7,317.0 C440.6,311.8 442.6,306.6 444.0,301.2 C445.5,295.2 446.8,289.2 448.1,283.2 C448.8,280.0 449.8,276.7 450.1,273.4 C450.2,271.9 451.0,266.8 448.8,266.1 C447.1,265.6 445.3,270.8 444.8,272.0 C443.7,274.7 442.7,277.6 441.7,280.4 C440.8,282.9 440.0,285.4 439.0,287.9 C438.0,290.4 437.6,293.0 436.7,295.5 C436.1,297.0 435.3,298.1 434.7,299.5 C434.2,300.6 434.1,301.7 433.7,302.8 C433.0,305.0 431.8,307.1 431.0,309.3 C429.9,312.2 428.6,314.9 427.5,317.6 C426.4,320.2 425.8,322.8 424.8,325.4 C423.8,327.8 422.3,330.0 421.4,332.4 C420.3,335.1 419.3,337.9 418.3,340.6 C416.1,346.2 414.0,351.7 412.3,357.5 C411.8,358.9 411.1,360.3 410.8,361.6 C410.5,362.8 409.9,363.7 409.4,364.8 C408.6,366.9 408.3,369.2 407.9,371.4 L407.9,371.4 L408.0,370.7 C407.1,370.8 406.2,370.9 405.6,370.2 C404.9,369.3 405.1,367.6 405.0,366.5 C404.0,366.7 404.4,367.1 404.5,368.1 C404.5,368.5 404.6,369.0 404.6,369.5 L405.1,373.0 C405.4,372.8 406.1,371.7 406.3,371.7 C406.8,371.6 407.2,372.8 407.4,373.4 C407.3,373.6 407.3,373.8 407.1,374.0 C406.9,374.5 406.6,374.9 406.4,375.4 C406.0,376.5 405.8,377.6 405.2,378.6 C404.9,379.1 404.6,379.6 404.3,380.0 C404.0,380.3 403.1,380.8 403.0,381.2 C402.6,382.0 403.2,384.1 403.1,385.0 C403.1,386.3 402.9,387.6 402.3,388.8 C402.1,389.3 401.7,389.6 401.4,390.0 C401.1,390.6 401.1,390.9 401.0,391.6 C400.8,394.4 399.8,396.9 398.8,399.4 C397.8,402.3 396.9,405.2 396.0,408.1 C395.1,410.8 393.9,413.4 393.0,416.1 C391.8,419.3 390.9,422.4 389.8,425.6 C389.0,428.0 387.8,430.1 387.0,432.4 C386.1,434.8 384.9,437.0 384.5,439.4 C384.0,442.2 382.6,444.9 381.6,447.5 C380.7,449.7 378.9,451.9 378.5,454.2 C378.3,455.3 378.6,456.3 378.3,457.4 C378.0,458.3 377.4,459.1 377.0,460.0 C376.4,461.2 376.8,462.3 376.5,463.6 C376.1,464.6 375.4,465.4 374.8,466.3 C373.8,468.0 374.1,469.9 373.1,471.6 C371.5,474.0 371.0,476.7 370.2,479.4 C369.8,480.7 369.5,482.1 369.2,483.5 C369.0,484.0 368.9,485.1 368.7,485.6 C368.3,486.2 367.7,486.0 367.4,486.3 C367.1,486.6 367.0,487.6 366.9,488.0 C366.6,489.3 366.0,490.5 365.5,491.8 C364.4,494.4 363.1,496.9 362.2,499.6 C361.2,502.4 360.1,505.2 359.1,508.0 C358.7,509.4 358.2,510.7 357.7,512.0 C357.2,513.3 356.6,513.7 355.8,514.7 C355.0,515.7 354.6,517.0 353.8,518.1 C353.1,519.0 352.6,519.8 352.3,521.0 C351.7,523.2 351.2,525.5 350.3,527.7 C347.9,533.2 344.9,538.4 342.5,543.9 C340.0,549.6 337.6,555.4 335.4,561.3 C333.4,566.8 332.1,572.6 330.0,578.1 C327.9,583.5 326.1,589.1 324.1,594.5 C321.9,600.2 319.8,605.9 317.9,611.6 C317.2,613.7 316.8,615.8 316.3,617.9 C316.5,616.9 316.6,616.0 316.8,615.1 C314.7,618.5 312.9,622.2 313.8,626.2 C314.3,625.5 314.7,624.6 315.1,623.6 C314.9,624.1 314.8,624.6 314.6,625.0 C314.0,626.2 313.5,627.1 313.1,628.5 C312.3,631.4 311.4,634.4 310.6,637.3 C310.2,638.7 309.8,640.2 309.3,641.6 C308.9,642.8 308.0,643.9 307.6,645.1 C307.2,646.5 307.3,648.2 307.0,649.6 C306.7,650.8 306.3,652.0 305.6,653.2 C305.1,654.0 304.4,654.8 304.0,655.7 C303.5,656.8 303.8,657.9 303.7,659.1 C303.5,660.6 303.0,662.0 302.8,663.5 C302.6,664.9 303.3,665.8 303.5,667.1 C303.8,668.5 303.3,669.5 302.8,670.7 C302.5,671.8 302.3,673.0 302.0,674.1 C301.9,674.6 301.8,676.1 301.5,676.4 C301.2,676.7 299.8,676.7 299.4,676.8 C298.1,677.0 296.7,677.3 295.4,677.3 C292.5,677.3 289.5,676.8 286.7,676.5 C280.9,675.9 275.1,675.0 269.5,673.2 C264.2,671.5 258.9,669.0 254.0,666.4 C249.1,663.8 244.8,660.2 240.6,656.5 C238.4,654.4 236.3,652.3 234.1,650.2 C233.1,649.1 232.1,648.1 231.1,647.1 C230.2,646.3 229.2,645.5 229.1,644.2 C229.0,642.8 230.0,641.2 230.5,639.9 C230.9,638.8 231.4,637.7 231.8,636.5 C232.9,633.7 233.9,630.9 234.9,628.1 C237.1,622.3 239.2,616.5 241.4,610.7 C243.6,604.9 245.8,599.2 248.4,593.6 C250.9,588.2 253.2,582.7 255.3,577.1 C257.3,571.9 259.6,566.8 261.8,561.6 C263.0,558.9 264.2,556.1 265.1,553.2 C265.9,550.8 266.4,548.5 267.6,546.3 C268.3,544.8 269.0,543.4 269.4,541.8 C269.8,540.4 270.0,539.3 270.9,538.2 C272.8,535.8 273.8,533.2 274.8,530.4 C276.6,524.9 278.8,519.4 281.4,514.3 C284.1,509.0 287.0,504.0 289.4,498.7 C291.8,493.3 295.1,488.5 297.4,483.0 C302.1,471.8 308.6,461.4 313.3,450.2 C318.0,439.1 323.6,428.5 328.3,417.5 C330.8,411.8 333.2,406.0 335.5,400.1 C336.6,397.3 337.7,394.5 338.8,391.8 C339.8,389.3 341.6,387.3 342.3,384.8 C343.0,382.1 344.2,380.1 345.5,377.7 C346.8,375.2 347.4,372.3 348.4,369.7 C350.7,364.0 353.0,358.4 355.4,352.8 C357.9,347.0 360.5,341.3 363.0,335.6 C364.0,333.5 364.5,331.1 365.5,329.0 C366.0,327.9 367.0,327.0 367.5,326.0 C367.7,325.5 367.6,324.9 367.8,324.3 C368.0,323.7 368.5,323.0 368.8,322.3 C371.3,317.1 374.2,312.1 376.5,306.7 C378.9,301.2 381.3,295.8 383.4,290.2 C385.5,284.7 388.1,279.5 389.9,273.8 C390.8,271.1 391.6,268.4 392.3,265.7 C392.8,263.3 393.9,259.8 393.3,257.3 C393.0,255.8 391.3,252.7 389.5,254.1 C387.8,255.4 386.9,257.9 386.0,259.7 C384.6,262.4 383.2,265.1 382.0,267.9 C381.1,270.2 380.3,272.3 379.0,274.4 C375.9,279.4 373.5,284.6 370.7,289.8 C370.1,291.0 369.4,291.9 368.5,293.0 C367.7,293.9 367.9,294.4 367.6,295.6 C367.0,297.8 365.1,299.6 364.2,301.7 C363.0,304.5 361.9,307.1 360.4,309.7 C359.0,312.0 357.8,314.3 356.7,316.7 C354.2,322.2 351.7,327.7 349.3,333.2 C348.0,336.1 346.7,339.0 345.3,341.9 C344.7,343.1 344.1,344.4 343.4,345.6 C343.0,346.4 342.2,347.1 341.8,347.9 C341.4,348.8 341.8,349.6 341.5,350.5 C341.1,351.5 340.6,352.0 339.7,351.3 C337.7,350.0 337.3,347.1 336.2,345.0 C333.6,340.1 331.2,335.5 330.2,330.0 C329.7,326.9 329.9,323.8 329.9,320.7 C329.9,317.9 331.6,316.1 333.0,313.8 C336.4,308.4 339.7,303.1 343.2,297.8 C344.7,295.5 346.0,293.0 347.5,290.7 C349.0,288.5 351.0,286.8 352.7,284.8 C353.6,283.6 354.2,282.4 355.2,281.2 C356.0,280.3 356.8,279.3 357.5,278.3 C358.8,276.3 359.6,274.1 361.1,272.2 C364.4,267.6 367.7,263.1 371.2,258.6 C373.1,256.2 375.3,254.8 377.6,252.9 C379.8,251.0 381.9,248.9 383.9,246.9 C387.9,243.0 391.7,238.8 396.2,235.4 C400.7,231.9 405.4,228.6 410.2,225.5 C412.6,223.9 415.6,222.8 417.5,220.7 C418.3,219.8 419.1,219.0 420.1,218.4 C421.1,217.9 422.2,217.7 423.1,217.2 C425.8,215.7 428.3,213.3 430.7,211.4 C433.1,209.5 435.5,207.7 437.9,205.8 C439.0,205.1 440.9,204.1 441.6,203.1 C442.0,202.6 442.0,201.8 442.5,201.2 C443.5,199.9 445.6,199.7 447.1,199.1 C450.0,198.0 453.0,197.4 456.0,196.9 C458.6,196.3 461.2,195.2 463.7,194.3 C469.3,192.4 475.1,191.2 481.0,190.6 C478.4,198.5 475.4,206.2 473.3,214.2 C472.5,217.4 472.4,221.2 471.0,224.3 C470.5,225.4 469.2,226.4 469.8,227.7 C470.3,228.6 471.7,229.6 472.6,230.2 C474.4,231.4 476.6,230.1 478.4,229.3 C481.4,228.1 484.4,226.6 487.6,226.0 C490.9,225.5 493.7,222.3 497.2,222.3 C498.7,222.4 499.9,223.1 500.9,224.0 C502.1,224.9 503.3,225.7 504.4,226.6 C506.8,228.8 509.6,230.6 512.6,231.8 C513.7,232.2 514.6,232.0 515.5,232.8 C516.2,233.4 516.8,234.3 517.8,234.5 C513.2,239.4 508.7,244.3 504.9,249.8 C502.9,252.5 501.5,255.1 500.5,258.3 C500.0,259.7 499.5,260.9 500.5,262.3 C501.0,263.1 501.8,263.8 502.8,263.6 C505.2,263.2 507.3,260.0 508.6,258.3 C510.1,256.3 511.8,254.4 513.4,252.4 C516.7,248.3 519.6,244.0 523.7,240.6 C524.9,239.6 526.1,238.5 527.5,237.6 C528.6,237.0 529.3,237.5 530.5,237.3 C533.5,236.7 536.2,235.2 538.9,233.8 C541.8,232.4 544.7,230.9 547.6,229.5 C549.1,228.7 551.3,227.2 553.1,227.9 C555.1,228.8 556.3,231.9 557.4,233.6 C558.4,235.2 559.4,236.6 561.1,237.5 C563.9,239.0 569.5,240.8 572.0,237.9 C575.5,233.8 575.1,227.1 574.8,222.1 C574.6,219.0 574.3,215.9 574.5,212.8 C574.7,210.1 575.0,207.4 575.3,204.6 C580.3,208.7 585.0,212.9 589.2,217.9 C591.4,220.6 593.7,223.1 595.9,225.7 C597.1,227.0 598.1,228.2 598.9,229.7 C599.6,231.0 600.5,232.2 601.5,233.2 C603.6,235.5 605.0,238.5 606.6,241.1 C608.2,243.7 609.7,246.2 611.2,248.8 C614.1,253.8 616.8,258.8 619.0,264.2 C620.2,267.0 621.8,269.5 622.9,272.3 C624.1,275.1 625.3,277.8 626.4,280.6 C627.1,282.2 627.8,283.8 628.3,285.5 C628.7,286.6 628.4,288.1 628.8,289.2 C629.2,290.2 630.2,291.1 630.6,292.2 C631.0,293.3 631.3,294.5 631.7,295.6 C633.9,301.0 636.9,306.2 639.3,311.6 C641.9,317.1 644.4,322.7 647.4,328.0 C650.4,333.4 654.3,338.3 658.0,343.2 C659.9,345.8 661.9,348.4 663.8,351.0 C664.5,352.0 665.1,353.1 665.9,353.8 C666.8,354.6 667.9,354.9 668.8,355.3 C669.4,353.9 670.1,353.0 669.9,351.4 C669.7,350.0 669.2,348.7 668.8,347.4 C667.9,344.9 665.8,342.6 666.3,339.8 C666.8,337.2 669.0,335.2 670.6,333.2 C672.7,330.6 674.8,328.1 677.0,325.5 C684.2,316.8 691.8,308.5 699.2,300.1 C703.0,295.7 706.7,291.4 710.6,287.2 C712.4,285.3 714.4,283.8 716.3,282.0 C717.8,280.6 718.8,278.8 720.3,277.3 C721.4,276.2 722.6,275.4 723.7,274.2 C724.6,273.3 725.5,272.4 726.4,271.5 C728.3,269.5 730.3,267.5 732.2,265.5 C736.1,261.5 739.7,257.2 743.5,253.1 C750.9,245.3 758.7,237.7 766.3,230.1 C768.6,236.7 770.4,243.5 772.0,250.2 C772.4,251.9 772.5,253.6 773.1,255.2 C773.7,256.8 774.5,258.3 775.1,259.8 C776.4,263.3 777.4,267.0 779.1,270.3 C782.3,276.6 785.1,283.8 789.7,289.2 C792.0,291.9 795.1,294.2 797.8,296.5 C800.7,299.0 803.5,301.5 806.4,303.9 C803.8,305.9 801.3,307.8 798.5,309.6 L798.5,309.6 Z M560.8,351.2 C560.5,350.6 560.3,350.3 560.0,350.1 C560.2,350.2 560.4,350.4 560.7,350.9 C561.1,351.8 561.4,352.9 561.8,353.9 C561.5,353.0 561.2,352.1 560.8,351.2 L560.8,351.2 Z M491.4,400.8 C493.4,403.0 495.5,405.1 497.5,407.3 C499.3,409.4 500.8,411.6 502.5,413.8 C506.1,418.5 509.8,423.0 513.7,427.5 C517.5,431.7 521.5,435.8 525.1,440.2 C528.6,444.6 531.3,449.4 534.0,454.4 C535.3,456.7 536.7,458.9 538.3,460.9 C539.1,461.9 540.2,462.7 540.7,463.8 C541.2,465.1 541.4,466.6 541.7,467.9 C544.5,479.8 547.3,491.7 550.0,503.6 C551.3,509.4 552.2,515.3 553.5,521.1 C554.7,526.9 556.6,532.6 557.8,538.5 C560.3,550.4 562.0,562.4 564.6,574.3 C567.1,585.8 571.6,596.8 574.0,608.4 C574.3,610.0 574.8,611.5 574.4,613.2 C574.1,614.5 573.9,615.7 573.8,617.2 C573.8,619.6 573.6,621.5 572.1,623.6 C569.4,627.7 565.5,631.3 560.9,633.3 C558.5,634.4 556.2,635.9 553.6,636.5 C552.3,636.8 551.1,636.6 549.9,636.8 C548.6,637.0 547.6,637.9 546.4,638.4 C541.7,640.3 535.8,639.7 530.9,639.7 C525.4,639.7 519.9,639.4 514.9,637.1 C514.5,636.9 514.1,636.7 513.7,636.5 C513.0,636.4 512.9,636.1 513.3,635.6 C513.3,635.0 513.7,634.4 513.7,633.8 C513.7,632.6 513.4,631.4 513.0,630.2 C512.3,627.4 511.6,624.6 511.0,621.7 C508.3,610.0 507.0,598.0 505.4,586.1 C504.6,580.0 503.3,573.9 502.3,567.8 C501.3,561.9 500.6,556.0 499.9,550.1 C499.1,544.2 498.3,538.4 497.5,532.5 C497.1,529.3 496.1,526.1 495.7,522.9 C495.4,520.5 496.1,518.2 495.5,515.7 C494.2,510.0 494.2,504.1 492.7,498.4 C491.2,492.5 489.0,486.8 487.0,481.1 C486.0,478.1 484.9,475.2 483.9,472.2 C483.2,470.5 482.5,468.6 480.7,467.8 C479.7,467.3 478.8,467.3 477.9,466.7 C476.8,465.8 475.8,464.6 474.8,463.7 C472.7,461.5 470.7,459.4 468.5,457.3 C460.3,449.1 452.4,440.5 443.3,433.2 C439.1,429.8 435.2,426.0 430.5,423.3 C425.5,420.3 420.6,417.3 415.6,414.3 C413.0,412.8 410.6,411.6 407.9,410.5 C405.5,409.6 407.0,407.4 407.7,405.5 C408.7,402.7 409.6,399.9 410.5,397.0 C411.2,394.8 411.5,392.0 413.7,390.8 C415.2,390.1 415.8,391.0 417.2,391.4 C418.2,391.7 419.2,391.8 420.3,391.7 C422.6,391.6 425.3,390.6 427.6,390.9 C429.1,391.2 429.9,391.2 431.4,391.0 C432.8,390.7 434.3,390.7 435.7,390.6 C438.3,390.4 440.9,390.4 443.5,389.9 C449.1,388.9 454.7,387.6 460.1,385.8 C465.8,383.8 471.3,381.0 476.8,378.4 C477.2,380.9 477.5,383.5 478.5,385.9 C479.2,387.8 480.5,390.4 482.3,391.4 C486.3,393.6 488.4,397.5 491.4,400.8 L491.4,400.8 Z M575.3,642.3 C577.1,641.3 577.4,642.6 578.5,644.1 C581.3,648.0 584.1,651.9 587.0,655.8 C589.8,659.5 592.5,663.3 595.3,667.1 C597.9,670.6 600.8,674.0 603.2,677.7 C605.7,681.5 607.6,685.7 609.5,689.8 C611.1,693.3 613.4,696.9 611.8,700.8 C610.2,704.4 605.7,705.9 602.5,707.6 C598.4,709.8 595.2,711.3 590.5,709.7 C581.7,706.5 573.1,702.5 564.8,698.3 C557.1,694.4 551.3,688.7 545.0,683.1 C541.6,680.2 538.2,677.5 535.1,674.3 C531.8,671.0 528.8,667.6 525.5,664.3 C520.4,659.2 515.1,654.7 516.0,646.8 C520.8,648.4 525.6,650.4 530.6,651.4 C535.9,652.4 541.3,653.0 546.7,652.8 C549.0,652.6 551.2,652.0 553.4,651.6 C555.7,651.1 557.9,651.6 560.0,650.5 C561.8,649.5 563.0,648.4 565.1,647.9 C567.2,647.4 569.0,646.7 570.9,645.4 C572.4,644.4 573.7,643.1 575.3,642.3 L575.3,642.3 Z M422.6,432.4 C422.6,432.4 422.7,432.4 422.7,432.4 C422.7,432.4 422.6,432.4 422.6,432.4 L422.6,432.4 Z M416.9,429.2 C417.0,429.2 417.0,429.3 417.1,429.3 C417.0,429.3 417.0,429.2 416.9,429.2 L416.9,429.2 Z M313.2,708.6 C315.5,712.6 317.7,716.8 319.9,720.9 C321.0,723.0 322.0,725.1 323.0,727.2 C323.9,729.1 324.8,730.6 324.9,732.7 C320.4,732.2 315.8,729.5 311.9,727.2 C307.9,724.7 304.5,721.6 301.0,718.3 C297.7,715.2 294.3,712.0 290.7,709.1 C289.0,707.8 287.3,706.6 285.5,705.6 C284.9,705.2 284.4,704.9 283.9,704.4 C283.4,703.8 283.2,702.8 282.5,702.4 C281.1,701.5 278.9,702.8 277.7,703.4 C276.1,704.2 274.5,705.2 273.1,706.4 C271.6,707.8 270.5,709.5 269.2,711.1 C267.9,712.6 266.6,714.0 265.5,715.6 C262.9,719.2 260.1,723.0 256.8,725.9 C255.3,727.3 253.4,728.4 252.1,729.9 C250.9,731.3 249.6,732.6 248.1,733.9 C244.8,736.5 242.0,739.2 239.2,742.4 C236.1,745.9 232.6,749.0 229.2,752.3 C228.7,750.2 229.6,748.5 230.5,746.7 C231.6,744.6 232.4,742.4 233.2,740.3 C235.2,735.6 237.3,731.0 239.7,726.5 C241.9,722.3 244.2,718.2 246.3,714.0 C248.1,710.5 250.8,706.2 250.0,702.2 C249.7,700.6 248.8,698.2 247.1,697.6 C245.4,697.1 243.7,698.6 242.3,699.4 C238.2,701.8 234.1,703.7 229.7,705.5 C225.4,707.3 221.1,709.0 216.9,711.2 C212.9,713.3 209.1,715.8 205.1,717.9 C203.1,718.9 201.0,719.7 199.0,720.7 C197.1,721.8 195.3,722.9 193.4,724.0 C189.6,726.0 185.8,727.5 181.5,728.1 C184.5,724.2 188.5,721.4 192.4,718.4 C196.9,714.9 201.3,711.3 206.0,708.0 C210.2,705.1 214.4,702.2 218.5,699.1 C220.4,697.7 222.3,696.2 224.1,694.6 C225.6,693.3 227.3,692.0 227.7,689.9 C228.0,688.0 227.1,685.8 225.5,684.7 C223.9,683.7 221.9,683.9 220.1,684.2 C215.0,684.9 210.1,686.4 205.2,687.8 C204.1,688.2 203.0,688.7 201.8,689.0 C200.7,689.2 199.4,689.1 198.2,689.2 C196.0,689.3 193.9,689.4 191.7,689.7 C189.4,690.0 187.1,689.9 184.9,690.2 C182.8,690.6 181.4,691.7 179.3,691.6 C170.0,691.4 161.4,696.6 152.2,696.6 C157.7,693.4 163.2,690.2 168.7,687.0 C171.2,685.5 173.8,684.2 176.3,682.6 C179.0,680.9 181.5,678.9 184.2,677.2 C194.2,671.3 205.3,667.0 214.4,659.7 C216.7,657.9 218.8,656.0 220.9,654.2 C221.4,653.8 222.0,653.0 222.6,652.7 C223.5,652.3 223.2,652.2 224.0,653.0 C224.9,653.9 225.5,655.0 226.2,656.0 C229.1,660.1 232.7,663.7 236.7,666.6 C241.4,670.1 246.8,672.1 252.0,674.6 C257.3,677.0 262.5,679.6 268.0,681.4 C273.6,683.3 279.5,684.2 285.3,684.9 C291.5,685.6 297.3,685.2 303.4,684.5 C303.7,689.1 304.2,692.9 306.4,697.1 C308.4,701.1 311.0,704.7 313.2,708.6 L313.2,708.6 Z M336.4,358.1 C336.8,358.2 337.4,358.2 337.8,358.4 C337.4,358.3 337.0,358.3 336.7,358.2 C336.6,358.2 336.5,358.1 336.4,358.1 L336.4,358.1 Z M338.0,360.7 C338.2,360.3 338.5,359.8 338.5,359.3 C338.5,359.8 338.2,360.3 338.0,360.7 L338.0,360.7 Z M285.3,438.6 C278.5,442.7 272.3,447.8 265.7,452.2 C262.4,454.4 258.9,456.4 255.4,458.2 C253.7,459.0 251.9,459.9 250.1,460.6 C248.6,461.2 247.1,462.2 245.5,462.7 C243.8,463.2 242.0,462.9 240.3,462.7 C238.8,462.5 237.3,462.6 236.1,461.6 C233.8,459.8 232.3,456.2 231.0,453.7 C229.1,450.2 226.9,446.6 225.5,442.8 C224.2,439.3 222.5,436.1 221.9,432.4 C223.0,430.4 222.9,428.4 222.0,426.4 C221.5,425.5 220.9,424.6 220.4,423.8 C219.8,422.8 219.8,422.6 218.7,422.6 C219.8,425.8 220.8,429.1 221.9,432.3 C220.8,429.1 219.4,425.8 218.7,422.6 C218.1,419.7 217.8,416.9 216.8,414.1 C216.3,412.7 215.5,411.3 215.1,409.9 C214.7,408.7 214.7,407.4 214.6,406.2 C214.1,402.8 213.2,399.4 212.7,395.9 C211.7,389.4 211.0,382.8 209.8,376.3 C208.5,369.7 206.8,363.0 205.4,356.4 C204.8,353.9 203.8,351.7 206.3,350.0 C208.7,348.3 211.3,346.9 213.8,345.5 C216.2,344.1 218.5,342.7 221.0,341.7 C223.2,340.8 225.3,339.9 227.2,338.6 C228.4,337.9 229.7,337.9 231.0,337.4 C232.5,337.0 233.8,336.4 235.2,335.9 C237.8,335.0 240.4,334.1 243.0,333.2 C244.4,332.7 247.3,330.8 248.6,332.2 C249.3,333.0 249.3,334.5 249.5,335.4 C249.8,336.9 250.1,338.3 250.4,339.8 C251.6,345.6 252.6,351.4 253.5,357.2 C254.4,362.9 254.9,368.7 255.8,374.4 C256.0,375.8 256.7,377.5 256.6,378.9 C256.5,379.9 255.8,380.5 255.1,381.1 C253.3,382.9 251.6,384.6 250.0,386.5 C248.2,388.6 246.5,390.8 244.6,392.8 C242.7,394.7 241.1,396.4 239.8,398.8 C238.6,400.7 237.1,402.6 237.7,404.9 C238.1,406.8 238.6,408.6 240.8,407.8 C243.3,407.0 245.5,404.5 247.4,402.8 C249.4,401.1 251.3,399.4 253.2,397.8 C255.4,396.0 257.8,394.4 259.9,392.5 C261.8,390.9 263.3,389.0 265.0,387.3 C269.2,383.1 273.7,379.4 278.1,375.5 C280.1,373.7 281.7,371.6 283.6,369.6 C285.4,367.7 287.4,365.9 289.3,364.1 C293.4,360.1 297.8,356.0 301.6,351.8 C303.5,349.7 305.5,347.8 307.3,345.8 C308.1,344.9 308.7,343.8 309.4,343.0 C310.1,342.3 311.2,341.8 312.0,341.0 C315.4,337.9 317.4,333.5 320.8,330.3 C321.7,332.2 322.3,334.3 323.0,336.4 C323.6,338.3 324.1,340.5 325.2,342.2 C325.7,343.0 326.5,343.6 327.0,344.4 C327.4,345.2 327.3,346.2 327.6,347.0 C328.1,348.6 329.3,350.3 330.1,351.8 C331.1,353.5 332.5,355.0 333.8,356.3 C334.1,356.7 334.4,357.0 334.8,357.3 C334.7,357.2 334.5,357.1 334.4,357.0 C335.4,358.8 336.3,359.6 338.0,360.8 C337.9,360.9 337.9,361.0 337.9,361.1 C337.0,362.9 336.0,364.7 335.3,366.6 C334.2,370.0 332.4,373.2 331.3,376.6 C330.7,378.4 330.5,380.3 329.6,382.1 C328.8,383.6 327.9,385.0 327.1,386.5 C325.4,390.1 324.2,394.1 322.8,397.8 C321.4,401.7 319.8,405.5 318.0,409.2 C316.3,412.9 314.6,416.7 313.1,420.5 C312.4,422.2 311.8,424.1 310.7,425.6 C309.5,427.2 307.8,427.6 306.0,428.3 C298.8,430.9 291.9,434.7 285.3,438.6 L285.3,438.6 Z M199.5,328.6 C195.5,325.1 189.8,326.1 184.8,326.1 C179.0,326.1 173.3,327.2 167.5,327.6 C161.8,328.0 156.0,328.3 150.2,328.1 C145.0,328.0 139.9,327.5 134.9,326.5 C132.4,326.0 129.9,325.7 127.4,325.5 C125.8,325.4 124.3,324.9 123.5,323.4 C122.5,321.4 122.7,318.4 122.7,316.3 C122.6,314.1 122.3,311.5 123.1,309.5 C124.0,307.5 125.8,306.5 127.7,305.8 C130.0,304.9 132.3,304.0 134.7,303.1 C144.1,299.5 153.7,295.4 163.9,294.5 C166.7,294.3 169.5,294.3 172.3,294.2 C174.7,294.1 177.0,293.5 179.4,293.3 C184.4,292.8 189.2,292.6 194.2,291.6 C195.5,291.3 196.4,292.0 197.8,292.3 C198.8,292.4 199.9,292.4 201.0,292.3 C203.2,292.2 205.3,291.9 207.6,292.1 C210.2,292.3 212.9,292.4 215.5,292.8 C217.8,293.2 220.1,293.8 222.4,294.1 C225.0,294.4 227.6,294.5 230.1,295.1 C231.4,295.4 233.3,295.6 234.0,296.9 C235.0,298.5 234.3,301.6 234.2,303.4 C234.1,305.9 233.9,308.4 233.9,310.9 C234.0,313.6 234.4,316.3 234.9,319.0 C235.3,320.9 236.1,323.1 235.7,325.1 C235.4,326.2 234.6,326.7 233.5,326.6 C232.7,326.4 232.1,325.7 231.3,325.6 C229.9,325.4 231.3,326.5 230.5,327.4 C229.8,328.1 228.8,327.9 227.9,328.1 C227.0,328.4 226.1,328.8 225.2,329.2 C223.3,330.1 221.2,330.7 219.3,331.7 C214.9,333.8 210.8,336.3 206.7,338.9 C206.0,336.8 205.5,333.7 204.1,332.0 C202.9,330.5 200.9,329.8 199.5,328.6 L199.5,328.6 Z M484.1,198.4 C485.0,195.8 486.2,193.2 487.0,190.6 C487.3,189.6 487.3,188.3 488.2,187.7 C489.1,187.3 490.5,187.5 491.4,187.6 C493.0,187.6 494.5,187.5 496.1,187.5 C496.9,187.5 498.1,187.4 498.5,188.2 C499.0,189.0 498.2,190.6 498.2,191.6 C498.2,193.0 498.5,194.4 498.9,195.8 C500.5,201.7 502.1,207.5 503.9,213.4 C502.1,212.6 500.7,210.7 498.7,210.5 C497.4,210.3 496.4,211.1 495.2,211.3 C494.2,211.5 493.2,211.5 492.1,211.8 C487.6,212.8 483.5,215.2 478.9,216.0 C479.1,214.3 479.1,212.8 479.7,211.1 C480.1,209.7 480.6,208.3 481.1,206.9 C482.1,204.1 483.1,201.2 484.1,198.4 L484.1,198.4 Z M499.1,158.8 C501.2,157.8 503.4,155.0 501.4,152.7 C500.3,151.5 497.5,152.1 496.0,152.4 C494.0,152.8 486.3,157.9 485.3,154.5 C484.7,152.2 485.8,148.8 486.8,146.8 C487.5,145.6 488.3,144.3 489.4,143.4 C490.5,142.3 491.0,142.6 492.4,142.8 C494.6,143.0 496.7,142.3 498.2,144.6 C498.5,145.0 498.6,145.6 499.2,145.7 C499.7,145.7 500.0,145.2 500.4,145.2 C501.2,145.2 501.3,145.7 501.6,146.3 C502.4,147.8 503.5,150.9 505.8,149.6 C508.2,148.3 508.3,144.2 508.3,141.9 C508.3,138.4 508.6,135.0 508.8,131.5 C508.9,128.7 509.2,126.2 511.2,124.2 C513.1,122.2 514.5,119.5 516.8,118.0 C519.4,116.3 522.8,116.5 525.8,116.3 C529.2,116.0 532.7,115.6 536.2,116.0 C539.7,116.3 543.0,116.5 546.6,116.3 C550.0,116.2 553.5,116.0 557.0,115.9 C560.3,115.8 563.7,116.1 566.9,115.7 C568.3,115.6 570.0,115.1 570.9,116.4 C571.9,117.9 571.8,120.6 572.1,122.3 C568.5,121.6 562.7,120.0 561.3,125.1 C560.9,126.6 562.2,127.9 563.3,128.8 C565.0,130.1 567.3,130.1 569.3,130.4 C570.4,130.5 572.2,130.5 572.8,131.6 C573.5,132.7 573.1,134.7 573.2,135.9 C573.5,140.8 574.2,145.7 574.7,150.6 C575.2,155.3 575.6,160.1 574.9,164.8 C574.5,167.2 573.5,169.5 573.4,171.9 C573.3,173.4 573.5,175.1 572.1,176.1 C570.5,177.2 567.8,177.2 565.9,177.6 C563.5,178.2 561.0,178.8 558.6,179.5 C554.8,180.6 550.1,181.2 548.7,185.5 C547.3,190.1 546.2,194.8 544.7,199.4 C544.0,201.7 543.0,203.8 542.0,206.0 C541.6,206.9 541.0,207.9 541.0,208.9 C541.1,209.9 541.8,210.9 542.2,211.8 C543.1,211.4 544.0,211.1 544.8,210.5 C545.6,209.8 546.2,208.8 546.8,207.9 C548.1,206.2 549.0,204.7 550.9,203.6 C551.0,204.5 551.2,205.3 550.8,206.1 C550.5,206.6 549.7,207.2 549.3,207.7 C548.2,209.1 547.1,210.6 545.8,212.0 C543.3,214.7 540.3,216.9 537.7,219.6 C535.1,222.2 532.7,225.3 529.5,227.3 C526.5,229.2 523.2,230.8 520.1,232.4 C522.8,226.1 520.9,219.7 517.6,214.0 C516.1,211.4 514.2,209.0 512.4,206.4 C511.1,204.5 508.4,201.8 508.5,199.2 C508.5,197.8 509.4,196.7 510.1,195.5 C510.8,194.3 511.4,193.0 512.0,191.6 C513.3,189.0 514.9,186.1 515.3,183.2 C515.7,180.6 515.1,177.1 513.4,175.0 C512.7,174.2 511.7,174.2 510.7,173.7 C509.8,173.1 509.2,172.3 508.4,171.6 C507.6,170.7 506.6,170.2 505.8,169.3 C504.9,168.5 504.3,167.3 503.6,166.3 C502.1,163.8 500.6,161.3 499.1,158.8 L499.1,158.8 Z M508.6,103.2 C511.2,103.2 512.6,104.7 513.9,106.8 C513.0,108.1 510.9,111.9 509.0,110.4 C508.7,110.1 508.6,109.5 508.1,109.2 C507.8,108.9 507.3,108.7 506.8,108.5 C505.8,108.1 504.7,107.6 504.1,106.7 C502.6,104.4 507.0,103.1 508.6,103.2 L508.6,103.2 Z M559.8,201.3 C560.3,201.2 561.7,202.2 562.2,202.4 C563.0,202.8 564.1,203.1 564.9,203.7 C565.6,204.3 565.9,205.1 566.4,205.9 C566.6,211.6 566.9,217.3 566.9,223.0 C566.7,217.3 566.6,211.6 566.4,205.9 C566.1,207.4 565.5,208.9 565.5,210.5 C565.5,212.1 565.7,213.8 565.9,215.5 C566.2,218.6 566.5,221.7 566.8,224.8 C566.8,226.6 566.7,228.4 566.6,230.1 C564.3,227.0 562.1,223.8 559.8,220.6 C557.7,217.8 555.1,217.6 551.9,217.4 C554.0,213.1 556.1,208.9 558.2,204.6 C558.4,204.2 559.4,201.5 559.8,201.3 L559.8,201.3 Z M931.3,211.0 C934.7,210.1 938.1,208.8 941.6,208.3 C944.9,207.9 947.9,206.4 951.1,205.5 C953.9,204.7 956.7,204.0 959.5,203.0 C961.6,202.3 963.9,201.5 965.6,200.0 C967.3,198.4 968.2,195.8 967.9,193.5 C967.5,190.8 965.5,190.4 963.2,189.6 C951.4,185.6 939.5,183.2 927.2,181.7 C920.9,180.8 914.5,179.8 908.1,180.0 C904.8,180.0 901.5,180.2 898.2,180.0 C895.2,179.8 892.2,180.9 889.3,180.3 C886.2,179.7 883.4,180.5 880.4,181.0 C877.2,181.4 873.9,181.5 870.7,181.7 C867.7,181.8 864.6,181.7 861.7,182.5 C858.9,183.2 856.7,183.8 853.9,182.8 C856.8,179.5 859.8,176.2 862.8,172.9 C869.0,166.1 875.4,158.8 879.2,150.3 C880.8,146.7 881.6,141.4 878.9,138.1 C876.5,135.0 871.3,135.7 868.0,136.2 C863.7,136.8 859.7,138.3 856.0,140.6 C852.5,142.7 848.6,144.5 845.4,147.1 C842.2,149.7 838.6,151.3 835.4,153.9 C832.1,156.5 828.8,159.0 825.5,161.5 C818.3,167.0 812.3,173.9 805.5,179.9 C801.9,183.0 798.5,186.4 795.3,189.9 C793.7,191.6 792.2,193.2 790.8,195.1 C789.8,196.7 788.8,198.3 787.6,199.8 C786.3,201.6 784.5,203.2 783.1,204.9 C781.7,206.5 780.5,208.2 779.3,210.0 C778.0,211.8 776.8,213.6 775.6,215.5 C774.9,216.4 774.3,218.1 773.0,217.9 C771.2,217.7 770.1,216.1 768.1,217.2 C767.4,217.5 767.0,218.2 766.5,218.7 C765.7,219.4 764.8,219.7 763.8,220.1 C761.9,221.1 760.3,222.5 758.7,223.7 C756.9,225.0 755.0,226.1 753.4,227.6 C746.4,233.9 739.9,240.7 733.2,247.2 C731.6,248.8 729.9,250.3 728.3,252.0 C727.1,253.3 726.1,254.8 724.8,256.1 C724.1,256.8 723.2,257.1 722.5,257.8 C721.7,258.4 721.1,259.3 720.5,260.0 C719.1,261.7 717.6,263.4 716.1,265.1 C713.1,268.3 709.8,271.2 707.0,274.5 C704.1,278.0 700.8,281.1 697.8,284.5 C691.6,291.7 685.7,299.0 679.9,306.6 C677.1,310.3 673.9,313.8 671.1,317.7 C668.5,321.3 666.4,325.3 664.4,329.3 C663.9,330.4 663.1,333.8 661.1,332.6 C660.4,332.2 659.9,330.9 659.4,330.2 C658.8,329.3 658.2,328.3 657.6,327.4 C655.0,323.2 652.2,319.1 650.1,314.6 C646.1,306.0 642.2,297.5 638.9,288.6 C637.2,284.1 635.3,279.7 633.4,275.3 C631.6,270.9 630.1,266.4 628.3,262.0 C624.7,253.3 619.9,245.0 615.1,236.9 C610.8,229.4 606.1,221.7 600.1,215.5 C596.8,212.2 594.3,208.5 590.9,205.3 C589.2,203.7 587.5,202.2 585.7,200.6 C584.5,199.4 583.4,197.7 581.9,196.9 C580.8,196.4 579.7,196.5 578.5,196.5 C577.6,196.6 576.6,196.3 575.7,196.4 C574.9,196.5 574.6,197.1 573.9,197.3 C573.1,197.5 572.6,197.1 571.9,196.7 C568.1,194.0 562.8,192.9 558.4,191.3 C561.2,189.5 564.6,189.5 567.7,188.7 C570.4,188.1 572.8,187.0 575.0,185.4 C579.8,181.8 580.6,176.1 581.4,170.5 C582.4,164.1 583.2,157.3 582.3,150.8 C581.5,144.5 580.6,138.1 579.7,131.8 C579.2,128.8 578.6,125.8 577.7,122.8 C577.0,120.4 576.0,117.9 576.1,115.3 C576.1,114.0 576.2,112.1 577.1,111.2 C577.8,110.5 578.9,110.1 579.6,109.5 C581.4,107.9 582.8,106.0 583.9,103.9 C584.8,102.3 586.2,99.8 585.4,97.8 C584.5,95.7 581.5,95.3 579.6,94.8 C573.8,93.3 567.9,93.5 562.0,92.7 C559.1,92.3 556.2,91.5 553.3,91.5 C550.5,91.5 547.7,91.6 544.9,91.5 C538.8,91.5 532.7,91.3 526.6,91.9 C524.9,92.1 523.3,92.2 521.7,92.3 C520.4,92.4 519.5,93.0 518.3,93.2 C517.5,93.4 516.5,93.0 515.8,92.9 C514.5,92.8 513.3,92.9 512.0,93.1 C509.4,93.6 507.4,95.2 504.9,95.8 C502.9,96.2 501.3,97.2 500.3,99.0 C497.7,103.5 497.6,109.7 497.3,114.8 C497.1,120.7 497.5,126.7 497.2,132.7 C497.1,134.1 497.0,134.7 495.4,134.5 C493.3,134.3 491.4,133.7 489.3,134.3 C485.2,135.4 482.6,139.1 481.0,142.9 C479.3,146.7 478.4,151.1 478.7,155.4 C478.9,159.1 480.3,163.9 484.4,165.0 C486.6,165.6 488.8,164.6 490.9,164.0 C492.9,163.4 494.6,161.6 495.7,164.1 C497.9,169.1 500.0,173.6 503.5,177.9 C500.2,177.7 497.0,177.4 493.8,177.3 C491.7,177.1 488.7,176.5 486.6,177.4 C485.4,177.9 485.4,178.7 484.5,179.4 C483.6,180.3 481.8,179.9 480.6,179.9 C477.1,179.8 473.9,179.1 470.4,179.5 C467.8,179.8 465.4,181.1 462.9,181.6 C459.7,182.1 456.6,183.4 453.7,184.6 C450.9,185.7 448.1,186.9 445.3,187.8 C442.4,188.7 439.4,189.6 436.6,190.9 C431.7,193.2 427.5,196.9 423.0,200.0 C421.9,200.8 420.6,201.5 419.5,202.4 C418.6,203.2 418.0,204.2 417.2,205.0 C415.8,206.2 414.2,206.2 412.7,206.9 C411.2,207.5 409.7,208.9 408.3,209.9 C407.0,210.7 405.8,211.6 404.5,212.4 C402.1,214.0 399.8,216.0 397.2,217.3 C392.4,219.7 388.7,223.5 384.8,227.2 C380.6,231.1 376.0,234.5 371.9,238.6 C367.9,242.7 364.2,247.0 361.0,251.7 C357.6,256.7 354.7,261.9 351.5,266.9 C350.1,269.2 348.2,271.1 346.5,273.2 C345.6,274.3 344.8,275.4 344.1,276.5 C343.5,277.5 343.0,278.8 342.0,279.6 C340.1,281.1 338.1,281.9 336.6,283.9 C334.8,286.2 333.3,288.6 331.8,291.0 C328.8,295.9 326.0,300.9 323.4,305.9 C322.6,307.4 322.6,308.5 322.5,310.1 C322.4,311.4 321.9,312.6 321.7,313.8 C321.3,315.8 321.6,317.9 321.0,319.9 C320.7,321.2 319.9,321.4 318.8,322.1 C317.8,322.8 316.9,323.6 316.0,324.5 C314.2,326.2 312.5,327.9 310.5,329.4 C308.6,331.0 306.5,332.5 304.8,334.3 C303.0,336.3 301.4,338.1 299.4,339.8 C295.0,343.3 290.9,347.3 286.6,350.9 C282.1,354.7 278.0,358.9 273.9,363.1 C269.7,367.4 265.2,371.4 260.8,375.5 C260.4,370.7 260.1,365.8 259.7,360.9 C259.3,355.6 258.1,350.5 257.0,345.3 C256.1,340.7 255.5,335.7 253.9,331.2 C252.8,328.2 250.7,325.7 247.5,324.9 C245.8,324.5 243.4,325.3 242.6,323.5 C241.8,321.7 241.7,318.9 241.4,317.0 C240.0,308.4 242.8,298.9 239.2,290.7 C237.7,287.1 234.8,285.2 231.3,283.7 C226.8,281.7 221.9,282.2 217.1,281.2 C214.9,280.8 213.2,279.6 210.9,279.5 C208.6,279.4 206.3,279.5 204.0,279.6 C201.7,279.6 199.4,279.2 197.0,279.2 C194.9,279.2 193.3,280.5 191.3,280.2 C189.0,279.9 187.2,279.3 184.9,280.0 C182.9,280.6 180.9,280.7 178.8,280.8 C176.2,280.9 173.6,280.6 171.0,280.7 C168.7,280.9 166.4,281.6 164.0,281.9 C159.0,282.5 154.2,283.0 149.3,284.4 C144.5,285.7 139.9,287.6 135.2,289.4 C127.7,292.2 119.1,294.3 117.0,303.1 C115.9,308.1 115.7,313.3 116.3,318.3 C116.8,322.4 117.7,326.9 120.1,330.3 C122.6,333.9 126.8,335.0 130.9,336.3 C135.5,337.7 140.2,337.9 145.0,338.8 C149.9,339.7 154.8,340.4 159.8,340.2 C164.8,340.1 169.6,338.8 174.6,338.4 C179.7,338.0 184.8,337.4 189.9,336.9 C193.3,336.6 199.8,335.6 201.5,339.5 C202.1,340.8 202.9,342.2 201.9,343.3 C200.7,344.6 199.6,346.0 198.6,347.4 C197.1,349.4 196.0,351.3 195.6,353.7 C195.2,356.1 195.1,358.6 195.1,361.0 C194.9,370.9 197.5,381.1 200.0,390.7 C202.5,400.8 205.3,410.8 208.8,420.5 C212.2,429.8 214.7,439.4 218.7,448.5 C220.7,453.0 223.3,457.1 226.1,461.2 C228.4,464.6 230.5,468.8 233.9,471.3 C236.8,473.4 240.4,474.4 244.0,474.1 C248.2,473.8 252.3,471.2 256.0,469.4 C264.9,464.8 273.2,458.7 281.2,452.7 C285.1,449.8 288.6,446.5 292.7,444.0 C296.7,441.5 300.7,439.3 305.2,438.0 C301.5,445.9 298.1,454.0 294.1,461.8 C290.1,469.5 286.8,477.5 283.3,485.4 C281.8,488.6 279.7,491.5 278.2,494.7 C276.6,498.4 274.9,502.1 273.3,505.8 C270.3,512.6 267.1,519.3 264.4,526.2 C263.8,527.8 264.0,529.7 263.2,531.1 C262.4,532.5 261.6,533.7 260.9,535.2 C259.6,538.4 258.6,541.7 257.1,544.9 C253.8,551.9 251.6,559.5 248.5,566.6 C245.3,573.7 242.4,580.9 239.6,588.1 C238.2,591.7 236.6,595.2 235.3,598.8 C234.1,602.1 233.0,605.5 231.0,608.5 C226.7,615.0 223.4,622.0 220.2,629.1 C218.6,632.5 217.3,635.8 217.0,639.5 C216.8,642.9 218.9,645.6 220.6,648.3 C217.5,649.9 214.7,651.9 211.7,653.4 C208.4,655.1 204.9,656.4 201.5,657.8 C198.1,659.2 194.6,660.6 191.2,662.0 C188.1,663.3 185.3,664.8 182.4,666.2 C179.6,667.6 177.0,669.4 174.4,671.0 C171.5,672.7 168.6,674.4 165.8,676.2 C160.2,679.6 154.8,683.0 148.9,686.0 C145.8,687.5 142.8,689.0 139.7,690.5 C137.2,691.8 134.4,692.9 132.6,695.1 C129.9,698.4 130.1,703.7 132.7,707.1 C134.4,709.3 138.6,709.1 141.1,709.1 C142.8,709.2 144.6,709.1 146.3,708.7 C147.7,708.5 148.9,707.7 150.3,707.4 C151.8,707.0 153.6,707.0 155.2,706.8 C156.7,706.6 158.3,706.3 159.8,706.0 C163.2,705.3 166.5,704.5 169.8,703.8 C173.1,703.1 176.4,702.4 179.5,701.5 C180.9,701.1 182.3,700.3 183.6,700.4 C185.1,700.4 186.4,700.5 187.9,700.2 C189.4,700.0 190.9,699.5 192.5,699.3 C193.9,699.1 195.3,699.4 196.7,699.1 C198.3,698.9 199.8,698.2 201.4,697.7 C202.9,697.3 204.2,697.4 205.8,697.4 C202.0,700.4 198.0,703.1 194.1,705.9 C190.2,708.8 186.5,712.0 182.7,715.1 C179.6,717.6 175.8,720.0 173.9,723.5 C172.4,726.4 172.1,730.0 172.7,733.2 C173.5,737.1 176.4,737.6 180.0,737.9 C184.6,738.2 188.2,736.2 192.2,734.3 C200.1,730.4 207.8,725.9 215.2,721.2 C218.9,718.9 223.0,717.2 226.9,715.3 C229.0,714.3 231.1,713.3 233.2,712.3 C234.9,711.5 237.1,709.9 239.0,710.1 C233.8,720.8 228.4,731.4 223.8,742.4 C221.9,747.0 220.4,751.7 220.0,756.7 C219.8,760.2 220.0,767.2 224.3,768.3 C226.3,768.9 228.1,767.6 229.4,766.3 C231.2,764.4 233.0,762.4 234.8,760.5 C238.3,756.7 241.9,753.1 245.7,749.7 C249.6,746.2 253.5,742.8 257.0,738.9 C260.3,735.2 264.4,732.4 267.6,728.5 C270.8,724.6 273.7,720.3 277.0,716.4 C279.1,713.8 280.8,709.7 284.5,709.1 C285.1,712.2 287.7,714.9 289.6,717.4 C293.6,723.0 298.6,727.5 303.7,732.1 C308.3,736.2 313.2,739.7 319.0,741.9 C322.9,743.4 330.9,746.8 333.9,742.2 C335.3,740.0 334.5,735.7 334.0,733.2 C333.3,729.9 331.6,726.7 330.2,723.7 C327.2,717.4 323.9,711.4 320.5,705.3 C318.8,702.2 317.2,699.2 315.3,696.2 C313.8,693.6 311.6,691.1 310.8,688.1 C310.5,686.9 310.3,685.2 310.7,684.0 C311.1,682.7 311.6,682.9 312.8,682.8 C315.4,682.4 314.6,677.6 314.3,675.8 C314.0,674.1 313.4,672.5 312.8,670.9 C312.3,669.6 311.1,667.8 311.2,666.4 C311.3,665.0 312.6,663.6 313.1,662.4 C313.7,661.0 314.1,659.5 314.6,658.0 C316.6,651.2 319.3,644.6 320.9,637.7 C322.6,630.8 324.4,624.0 326.8,617.4 C329.4,610.5 332.1,603.6 334.5,596.6 C336.7,589.9 338.9,583.1 341.4,576.4 C346.3,562.9 351.6,549.6 357.4,536.5 C363.2,523.6 369.7,511.0 374.7,497.7 C377.1,491.3 379.5,485.0 381.7,478.6 C384.0,471.9 386.5,465.4 389.3,458.9 C392.0,452.2 394.3,445.3 396.6,438.5 C399.0,431.8 401.0,424.9 403.8,418.4 C404.6,419.2 405.2,419.8 405.8,420.8 C406.3,421.7 406.7,422.6 407.5,423.4 C408.8,424.9 410.5,425.9 412.0,427.0 C413.0,427.7 413.9,428.6 415.0,428.7 C415.0,428.7 415.1,428.7 415.1,428.7 C414.9,428.8 414.7,428.8 414.5,428.8 C415.9,429.8 417.4,430.8 418.8,431.8 C418.7,431.5 418.6,431.3 418.4,431.0 C418.9,431.8 419.4,432.6 420.4,432.8 C420.3,432.8 420.2,432.8 420.2,432.8 C420.8,433.3 423.3,435.8 423.1,433.1 C423.2,433.6 423.0,433.9 423.2,434.3 C423.4,434.7 423.8,435.2 424.1,435.5 C424.8,436.3 425.6,436.9 426.5,437.5 C428.4,438.9 430.5,440.1 432.4,441.5 C432.9,442.0 434.7,444.1 435.4,444.1 C436.6,445.1 437.8,446.2 438.9,447.2 C438.5,445.6 438.0,444.0 437.6,442.4 C437.9,443.6 438.2,444.7 438.6,445.9 C438.9,447.2 439.5,447.7 440.5,448.6 C442.3,450.2 444.0,451.8 445.9,453.3 C449.2,456.0 453.1,458.1 456.6,460.6 C458.6,461.9 460.5,463.2 462.3,464.7 C463.9,465.8 465.7,466.3 467.2,467.4 C469.1,468.8 470.8,470.7 472.5,472.4 C474.0,474.0 475.7,475.5 476.7,477.4 C477.9,479.6 477.9,482.4 478.3,484.7 C478.6,487.1 479.0,489.5 479.3,492.0 C480.1,496.9 480.7,501.8 481.3,506.8 C481.9,511.6 482.6,516.5 483.0,521.4 C483.5,526.3 483.4,531.3 483.9,536.2 C485.0,546.1 486.3,556.2 488.4,565.9 C490.6,575.7 491.9,585.7 493.8,595.5 C494.7,600.6 495.7,605.7 496.7,610.7 C497.2,613.2 497.7,615.7 498.2,618.2 C498.7,620.3 498.4,622.4 498.8,624.4 C499.0,625.5 499.3,626.7 499.3,627.8 C499.3,628.9 498.6,629.9 498.5,630.8 C498.5,632.2 499.8,634.4 500.5,635.5 C501.7,637.2 503.3,638.7 504.7,640.3 C506.0,641.8 506.6,642.4 506.1,644.5 C504.0,653.4 509.3,660.9 515.0,667.3 C521.3,674.2 527.5,681.0 534.7,687.0 C538.5,690.2 542.0,693.6 545.6,696.9 C549.1,700.1 552.8,702.6 556.8,705.1 C560.9,707.6 565.2,709.4 569.5,711.5 C573.6,713.7 577.7,715.7 582.1,717.3 C586.4,718.8 590.6,720.0 594.7,721.9 C597.9,723.4 602.0,723.4 605.2,722.0 C607.4,721.0 609.2,719.4 611.2,718.0 C613.0,716.8 614.8,715.6 616.7,714.5 C619.9,712.7 623.0,710.6 624.3,707.0 C625.9,702.9 624.5,697.8 623.6,693.6 C622.7,689.3 620.8,685.3 618.5,681.6 C616.1,677.7 613.1,674.3 610.3,670.7 C607.5,667.0 604.9,663.0 602.0,659.4 C599.0,655.7 595.9,652.3 592.6,649.0 C589.3,645.8 586.4,642.1 583.4,638.6 C582.6,637.8 581.5,636.9 581.4,635.7 C581.2,634.6 581.9,633.9 582.3,633.0 C583.0,631.2 582.8,629.2 582.8,627.4 C582.8,626.5 582.8,625.5 583.2,624.7 C583.7,623.9 584.4,623.6 584.7,622.8 C585.0,622.1 584.9,621.2 585.1,620.4 C585.2,619.4 585.7,618.7 586.0,617.8 C586.8,615.5 585.8,612.8 585.4,610.5 C585.0,608.4 584.6,606.2 584.2,604.0 C583.3,599.4 582.7,594.7 581.2,590.2 C578.2,581.0 575.3,571.8 575.1,562.1 C575.0,557.2 573.7,552.5 572.5,547.8 C571.3,542.8 570.1,537.8 568.9,532.7 C566.5,523.2 563.7,513.7 561.3,504.2 C558.8,494.6 556.6,485.0 553.8,475.6 C550.8,466.1 546.8,457.2 542.5,448.3 C540.4,444.0 538.1,440.3 535.1,436.6 C531.9,432.8 528.6,429.0 525.4,425.3 C518.8,417.8 512.2,410.3 505.6,402.8 C502.2,399.1 498.9,395.6 495.0,392.5 C491.5,389.7 486.8,387.3 485.7,382.7 C485.4,381.4 485.2,380.1 484.9,378.9 C484.7,378.1 484.1,377.0 484.2,376.2 C484.3,374.6 487.3,374.0 488.5,373.4 C492.6,371.6 496.8,369.7 500.9,367.7 C503.1,366.5 505.1,365.2 507.2,363.8 C509.0,362.6 511.0,362.3 513.0,361.7 C517.4,360.3 521.4,358.3 525.5,356.2 C529.7,354.0 533.9,351.8 538.0,349.3 C542.1,346.8 545.3,343.8 548.8,340.5 C550.4,339.1 551.5,339.8 552.6,341.4 C554.0,343.3 555.4,345.2 556.8,347.1 C557.4,348.0 558.0,349.1 558.9,349.6 C559.0,349.6 559.0,349.6 559.0,349.7 C558.9,349.6 558.7,349.6 558.5,349.5 C558.8,351.9 560.6,353.5 562.2,355.2 C562.1,354.8 561.9,354.4 561.8,353.9 C562.2,355.1 562.8,355.9 563.5,356.8 C565.0,358.8 566.6,360.5 568.3,362.2 C569.2,363.1 570.1,363.9 571.0,364.8 C571.4,365.2 571.8,365.5 572.1,365.9 C572.7,366.4 573.0,366.6 573.6,366.9 C574.9,367.4 575.2,368.4 576.2,369.2 C577.8,370.3 579.8,371.1 581.5,372.3 C582.9,373.2 584.0,375.1 585.6,375.4 C586.2,375.6 586.6,375.5 587.1,375.9 C587.7,376.5 587.0,376.5 588.0,376.7 C588.5,376.8 588.9,376.5 589.4,376.7 C589.9,376.9 590.4,377.3 590.8,377.6 C591.8,378.3 592.8,379.0 593.8,379.8 C595.5,381.0 597.3,382.3 599.0,383.7 C602.5,386.3 605.6,389.3 609.1,391.9 C610.9,393.3 612.8,394.3 614.7,395.4 C616.3,396.4 617.7,397.7 619.2,398.8 C621.0,400.1 623.1,400.7 624.9,401.9 C626.7,403.1 628.5,404.3 630.4,405.3 C634.5,407.6 638.7,409.7 643.1,411.5 C647.5,413.3 652.0,414.7 656.8,415.0 C661.7,415.2 666.3,413.9 670.8,412.1 C675.3,410.4 679.7,408.4 683.9,406.1 C688.0,403.9 691.8,401.3 695.8,398.9 C699.9,396.6 703.7,394.2 707.5,391.5 C711.2,389.0 714.7,386.2 718.6,384.1 C722.6,382.0 726.1,379.3 729.9,376.9 C733.7,374.4 737.6,371.8 741.4,369.3 C749.4,363.9 757.4,358.5 764.9,352.6 C768.6,349.7 772.2,346.8 775.4,343.5 C778.8,339.9 782.8,336.9 786.6,333.7 C790.1,330.2 793.7,326.7 797.3,323.2 C797.3,323.2 797.3,323.2 797.3,323.2 C793.7,326.7 790.1,330.2 786.6,333.7 C788.3,333.4 789.4,332.2 790.7,331.2 C792.2,330.1 793.6,328.9 795.0,327.8 C797.1,326.1 799.5,324.4 799.2,321.4 C800.1,320.6 801.1,319.7 802.0,319.0 C803.6,317.7 805.5,316.9 807.1,315.8 C810.6,313.6 813.5,310.7 816.7,308.1 C818.1,307.0 819.4,306.1 819.6,304.2 C819.9,302.1 819.6,299.9 819.6,297.8 C819.6,296.2 819.1,293.9 819.7,292.4 C820.3,290.8 822.4,290.2 823.7,289.4 C827.5,287.4 831.3,285.2 835.0,283.1 C838.8,281.1 842.0,279.7 846.3,279.4 C848.1,279.2 849.9,278.9 851.7,278.6 C853.6,278.3 855.4,278.9 857.3,279.2 C861.5,280.0 865.7,280.5 870.0,281.3 C874.2,282.0 878.4,283.1 882.6,284.1 C886.8,285.2 891.0,286.3 895.2,287.0 C897.4,287.4 899.6,287.6 901.8,288.3 C903.4,288.8 904.9,289.6 906.5,289.9 C910.5,290.8 914.5,290.9 918.4,292.2 C922.3,293.5 926.3,294.2 930.3,294.8 C932.4,295.1 934.5,295.5 936.6,295.9 C937.9,296.2 939.0,296.4 940.3,296.1 C943.0,295.4 945.1,293.3 946.0,290.7 C948.3,283.6 943.8,276.0 939.2,270.9 C934.2,265.5 928.0,261.8 922.0,257.6 C924.4,257.3 926.7,257.7 929.1,257.7 C931.1,257.7 933.1,257.7 935.1,257.8 C939.6,258.0 944.1,256.7 948.6,256.6 C954.7,256.5 962.2,255.2 963.8,248.3 C965.3,241.8 958.5,236.0 953.6,233.1 C950.4,231.2 947.2,229.5 944.2,227.5 C940.9,225.3 936.8,224.1 933.2,222.6 C929.5,221.2 925.7,219.8 921.9,218.7 C918.2,217.8 914.5,217.2 910.9,215.8 C914.1,214.4 917.6,214.1 921.1,213.4 C924.5,212.8 927.9,211.9 931.3,211.0 L931.3,211.0 Z" /><path d="M952.0,464.2 C951.6,465.7 950.7,466.4 949.2,466.8 C946.7,467.4 944.0,467.5 941.5,467.8 C936.8,468.4 932.0,468.6 927.5,469.7 C923.2,470.7 919.0,472.3 915.1,474.4 C916.4,468.4 917.8,462.5 917.3,456.3 C916.9,451.8 916.8,444.9 912.2,442.3 C911.1,441.7 909.4,441.9 908.2,441.8 C906.7,441.8 905.2,441.7 903.6,441.6 C900.6,441.4 897.6,441.1 894.5,440.8 C888.5,440.2 882.6,439.5 876.6,438.6 C875.7,438.5 873.9,438.6 873.2,437.7 C872.8,437.1 873.0,436.1 873.0,435.4 C873.1,433.0 873.1,430.6 872.7,428.1 C872.1,422.8 870.6,417.6 869.0,412.6 C868.2,410.0 867.3,407.5 866.4,404.9 C866.0,403.7 865.1,402.0 866.4,401.1 C867.3,400.5 868.7,400.5 869.7,400.3 C870.9,400.0 872.0,399.6 873.1,399.3 C875.8,398.4 878.4,397.5 881.1,396.6 C891.2,393.2 901.4,390.1 911.5,386.7 C912.9,386.2 914.4,385.7 915.8,385.2 C916.4,385.0 917.4,384.4 918.1,384.7 C918.9,385.1 918.7,385.9 919.3,386.4 C919.8,386.9 920.8,386.9 921.5,387.3 C923.0,388.2 924.0,389.8 925.3,391.0 C926.9,392.7 928.7,394.1 930.2,395.8 C936.6,402.6 941.3,410.8 945.3,419.1 C946.3,421.4 947.0,423.7 947.7,426.1 C948.3,428.3 949.1,430.6 949.5,432.9 C950.3,438.3 950.4,443.9 951.0,449.4 C951.6,454.0 953.1,459.6 952.0,464.2 M911.6,451.9 C911.6,455.5 911.4,459.1 910.6,462.7 C909.8,466.3 908.3,469.9 907.0,473.3 C905.8,476.7 904.8,480.1 903.3,483.3 C901.9,486.5 900.1,489.4 898.9,492.7 C896.6,499.4 892.6,505.4 889.7,511.9 C886.8,518.6 883.6,524.9 880.0,531.3 C878.3,534.3 876.7,537.6 874.5,540.3 C873.5,541.7 872.2,543.0 871.0,544.2 C869.9,545.2 869.4,544.4 868.1,544.7 C866.2,545.0 865.2,547.5 863.9,548.8 C861.6,551.2 859.2,553.6 856.6,555.8 C854.0,558.0 851.1,559.9 848.4,562.0 C845.8,564.1 843.2,565.9 840.3,567.4 C834.5,570.4 827.8,574.0 821.1,573.7 C818.0,573.5 816.3,571.5 815.0,568.8 C813.7,566.0 814.1,562.6 814.4,559.6 C814.6,555.9 815.5,552.7 817.5,549.6 C819.4,546.5 817.5,544.6 815.6,542.1 C811.3,536.4 805.6,532.0 800.4,527.2 C797.7,524.7 795.1,522.2 792.4,519.7 C791.0,518.3 789.5,516.9 788.0,515.5 C787.0,514.5 785.9,513.8 785.5,512.4 C788.4,510.8 791.5,509.4 794.2,507.5 C799.7,503.5 804.7,498.5 809.9,494.1 C812.4,492.0 814.4,489.4 816.4,486.8 C818.3,484.3 820.5,482.0 822.2,479.3 C825.7,473.5 829.8,467.8 832.7,461.7 C834.1,458.6 834.8,455.5 835.6,452.2 C836.0,450.2 836.5,448.2 837.0,446.3 C837.3,445.0 837.4,442.8 838.2,441.8 C839.7,439.9 844.4,443.0 846.2,443.5 C849.4,444.5 852.8,445.0 856.1,445.6 C863.2,446.7 870.3,447.6 877.4,449.0 C881.1,449.7 884.8,450.5 888.5,450.8 C892.2,451.2 895.8,451.0 899.5,451.0 C900.3,451.0 901.2,451.1 901.7,450.4 C902.0,450.0 901.8,449.5 902.3,449.1 C902.9,448.6 903.8,448.9 904.5,448.9 C905.9,449.1 907.4,449.2 908.8,449.4 C909.5,449.4 910.7,449.3 911.3,449.7 C911.8,450.0 911.6,451.1 911.6,451.9 M809.5,549.2 C807.8,552.6 806.8,557.4 806.8,561.2 C806.7,563.2 807.0,565.3 807.4,567.3 C807.8,569.0 808.8,571.0 808.5,572.7 C804.1,570.8 799.9,568.6 795.5,566.8 C791.7,565.3 788.9,562.6 785.7,560.0 C782.4,557.2 779.4,554.2 776.1,551.3 C772.7,548.1 769.1,545.2 765.5,542.1 C759.3,536.7 754.0,530.6 748.9,524.1 C744.4,518.4 737.9,511.2 738.2,503.4 C738.3,499.9 738.6,495.8 740.3,492.6 C741.8,489.9 744.4,486.9 746.9,485.2 C749.3,483.5 751.6,487.8 752.9,489.3 C755.8,492.5 758.7,495.7 761.7,498.9 C767.2,505.0 772.4,511.5 778.4,517.1 C784.5,522.9 790.7,528.5 797.2,533.7 C800.4,536.3 804.0,538.7 807.0,541.6 C808.0,542.7 810.1,543.9 810.9,545.3 C811.6,546.7 810.1,548.0 809.5,549.2 M957.7,464.8 C956.8,464.7 956.8,464.8 956.7,463.9 C956.6,462.5 957.1,460.9 957.2,459.5 C957.9,452.9 957.6,445.9 957.0,439.3 C955.9,426.3 953.2,413.6 946.4,402.3 C943.3,397.1 939.7,392.2 935.3,388.0 C933.2,386.1 931.2,384.0 929.0,382.3 C927.8,381.5 926.2,381.1 925.1,380.2 C924.6,379.8 924.3,378.8 923.9,378.2 C922.0,375.9 919.8,375.2 916.8,375.5 C913.7,375.8 910.4,376.7 907.4,377.6 C901.0,379.4 894.9,382.4 888.7,384.8 C882.5,387.2 876.3,389.7 870.2,392.3 C867.5,393.4 864.3,394.3 861.9,396.0 C860.5,397.1 860.0,398.3 860.2,400.1 C860.7,406.1 863.0,412.1 864.7,417.9 C866.5,424.2 868.0,430.5 868.5,437.0 C862.1,436.5 855.8,436.1 849.5,435.3 C846.4,434.9 843.2,434.5 840.0,434.1 C838.4,433.9 837.6,433.3 836.3,432.4 C835.2,431.7 834.6,432.3 834.1,433.4 C831.5,439.3 830.5,445.7 827.8,451.5 C826.5,454.2 825.0,456.6 823.7,459.2 C822.3,462.0 820.6,464.8 818.8,467.4 C818.0,468.6 816.9,469.6 816.0,470.7 C815.2,471.8 814.6,473.0 813.8,474.1 C812.2,476.4 810.3,478.4 808.3,480.4 C806.3,482.4 804.4,484.4 802.5,486.5 C800.6,488.5 798.4,490.2 796.4,492.1 C794.6,493.9 792.9,495.9 791.0,497.6 C789.2,499.4 788.3,501.7 786.4,503.3 C785.3,504.1 784.1,504.8 783.1,505.6 C782.2,506.3 781.3,507.5 780.0,507.3 C778.7,507.0 777.6,505.1 776.7,504.2 C775.6,503.0 774.5,501.7 773.3,500.5 C768.9,495.7 764.4,491.0 759.9,486.3 C757.8,484.0 755.4,481.9 753.2,479.5 C751.7,477.8 749.2,476.5 747.0,477.7 C744.8,478.9 742.2,480.0 740.4,481.8 C738.5,483.7 737.0,486.2 735.4,488.5 C733.8,490.8 733.1,493.5 732.7,496.3 C732.3,499.2 731.8,502.1 732.0,505.1 C732.4,510.8 733.5,517.1 736.8,521.9 C738.3,524.1 740.4,525.8 742.4,527.8 C744.4,529.9 745.9,532.4 747.6,534.9 C751.0,539.7 755.2,544.0 759.5,548.0 C761.6,550.0 763.9,551.6 765.9,553.5 C768.1,555.6 770.3,557.5 772.8,559.2 C775.3,561.0 777.4,563.3 779.7,565.3 C782.1,567.4 784.5,569.4 787.1,571.2 C792.1,574.7 797.1,576.9 802.9,578.7 C809.3,580.6 815.4,583.1 821.8,585.1 C824.8,586.1 827.8,584.7 830.7,583.8 C833.6,582.8 836.5,581.6 839.3,580.1 C844.8,577.0 850.1,573.4 855.5,570.1 C861.1,566.7 865.8,562.8 870.1,557.8 C874.2,553.1 878.5,548.4 882.3,543.3 C889.9,533.1 894.5,521.0 900.1,509.7 C903.1,503.7 906.1,497.7 908.6,491.5 C909.8,488.4 910.9,485.3 912.2,482.2 C912.7,480.9 913.1,480.4 914.5,480.2 C916.2,479.9 917.9,479.8 919.5,479.6 C926.0,478.8 932.4,477.7 938.8,476.6 C944.8,475.5 950.8,474.5 956.2,471.4 C957.3,470.8 958.6,470.0 959.3,468.8 C959.5,468.3 960.2,465.5 959.8,465.1 C959.6,464.8 958.1,464.8 957.7,464.8" /><path d="M691.2,53.8 C693.3,52.7 695.4,51.7 697.5,50.6 C702.0,48.5 706.4,46.1 710.9,44.1 C713.0,43.1 715.1,42.5 717.2,41.7 C719.4,40.9 721.6,39.8 723.7,38.8 C728.2,36.6 732.8,34.7 737.5,32.9 C739.0,32.4 740.4,31.9 741.8,31.3 C742.9,30.9 744.3,30.1 745.4,30.0 C747.2,29.8 748.6,31.6 749.9,32.8 C756.5,38.8 761.3,47.7 764.2,56.2 C765.7,60.8 766.4,65.5 767.3,70.3 C768.1,75.2 769.0,80.0 769.1,85.0 C769.1,90.1 769.6,95.1 769.4,100.1 C769.3,102.0 769.7,105.4 768.6,107.1 C767.6,108.8 764.9,109.2 763.2,109.8 C753.9,113.2 744.6,116.9 735.1,119.8 C725.3,122.9 715.5,126.1 705.7,129.3 C706.1,126.5 706.5,123.7 706.9,120.9 C707.2,118.2 706.9,115.5 706.9,112.9 C706.9,107.0 706.7,101.2 705.5,95.5 C703.4,85.1 699.9,74.9 694.2,65.9 C692.8,63.8 691.2,61.9 689.6,60.0 C689.1,59.3 687.1,57.7 687.2,56.7 C687.3,55.3 690.2,54.3 691.2,53.8 M803.0,52.6 C805.1,52.7 806.5,53.2 806.7,55.5 C806.9,58.5 806.8,61.4 806.9,64.4 C807.1,70.0 807.3,75.6 807.2,81.3 C806.9,91.1 805.9,101.0 802.9,110.4 C801.4,114.9 799.7,119.4 797.8,123.8 C795.9,128.1 793.4,131.9 791.1,135.9 C789.9,137.9 788.7,139.5 787.1,141.2 C786.4,142.0 786.0,142.4 785.0,142.5 C783.9,142.6 782.6,142.4 781.6,142.3 C776.6,141.9 771.6,141.4 766.6,141.2 C761.6,141.0 756.7,141.2 751.7,140.9 C749.4,140.8 747.2,140.1 744.9,139.7 C742.6,139.3 740.3,139.2 738.0,138.9 C736.8,138.8 736.8,139.1 736.6,138.0 C736.5,137.4 736.7,136.7 736.7,136.1 C736.8,134.9 736.8,133.8 736.9,132.6 C737.0,131.6 736.8,129.8 737.2,128.9 C737.5,128.0 738.3,127.9 739.2,127.6 C743.8,126.4 748.2,124.8 752.6,123.0 C757.2,121.2 761.7,119.5 766.2,117.5 C768.1,116.7 770.3,115.9 771.8,114.3 C773.0,113.0 773.7,111.4 774.2,109.7 C777.1,100.6 776.2,90.0 775.3,80.6 C774.5,71.0 773.1,61.0 769.5,51.9 C780.7,51.9 791.9,52.1 803.0,52.6 M678.6,61.0 C681.7,62.2 683.6,64.9 685.4,67.5 C687.7,70.7 689.8,74.0 691.5,77.6 C695.2,85.0 697.7,93.2 699.1,101.4 C700.4,109.2 701.1,117.9 699.5,125.8 C699.1,127.9 698.0,129.6 697.4,131.5 C697.0,132.9 697.3,134.8 697.7,136.1 C698.2,138.0 700.0,137.4 701.5,137.1 C703.7,136.6 705.9,136.2 708.0,135.7 C716.3,134.0 724.4,131.0 732.8,130.4 C732.1,132.6 731.7,134.6 730.2,136.5 C728.9,138.3 727.1,139.9 726.3,142.0 C725.7,143.8 725.5,146.3 726.2,148.1 C726.9,150.0 728.6,150.1 730.3,150.3 C735.3,150.9 740.2,151.7 745.2,152.0 C746.3,152.0 747.4,152.1 748.4,151.9 C749.3,151.8 749.9,151.5 750.8,151.7 C751.9,151.9 752.9,152.4 754.1,152.6 C755.3,152.7 756.4,152.6 757.5,152.6 C761.7,152.4 765.8,152.9 770.0,152.5 C771.3,152.4 773.6,151.7 774.7,152.4 C775.9,153.1 775.0,154.6 775.6,155.6 C776.4,157.0 779.1,156.3 780.4,156.2 C782.3,156.1 784.0,155.8 785.7,154.9 C789.1,153.1 792.1,150.8 794.7,147.9 C797.3,144.9 799.2,141.3 801.1,137.8 C803.0,134.1 805.0,130.5 806.5,126.6 C808.0,122.5 809.5,118.4 810.3,114.2 C811.2,110.0 811.7,105.8 812.5,101.6 C813.4,97.2 813.5,92.7 813.7,88.3 C814.0,83.7 814.1,79.1 813.8,74.5 C813.5,70.0 813.0,65.5 812.5,61.0 C812.3,59.9 812.4,58.7 812.2,57.6 C812.1,56.8 811.7,56.1 811.6,55.3 C811.6,53.7 813.0,52.7 812.9,51.1 C812.9,47.4 808.9,46.0 805.9,45.1 C802.0,43.9 797.7,43.2 793.7,43.5 C785.0,44.1 776.1,44.2 767.9,47.4 C763.6,40.1 759.7,32.1 752.7,27.0 C751.9,26.4 751.0,26.0 750.5,25.2 C750.1,24.4 749.9,23.7 749.3,23.0 C747.9,21.4 746.1,21.2 744.1,21.6 C739.8,22.6 735.6,23.6 731.5,25.2 C729.6,26.0 727.7,26.3 725.8,27.0 C724.0,27.7 722.4,28.6 720.6,29.4 C716.9,31.3 713.1,32.8 709.3,34.7 C701.8,38.4 694.4,42.3 687.6,47.1 C684.2,49.4 680.4,51.7 677.6,54.7 C676.3,55.9 675.8,57.6 676.0,59.3 C676.2,61.2 677.2,60.5 678.6,61.0" /><path d="M188.1,75.3 C188.4,70.5 188.3,65.8 188.6,61.0 C189.0,56.5 189.9,51.9 190.8,47.4 C191.7,42.9 193.3,38.9 195.2,34.7 C196.2,32.4 197.2,30.1 198.2,27.7 C198.8,26.3 199.2,24.8 200.9,24.4 C203.0,24.0 205.6,24.4 207.9,24.3 C210.1,24.2 212.4,24.1 214.6,23.9 C219.5,23.4 224.3,22.7 229.2,22.2 C233.9,21.7 238.5,21.4 243.1,20.5 C245.4,20.0 247.8,19.4 250.1,18.8 C251.9,18.4 254.3,17.3 256.1,17.7 C253.9,22.7 253.2,28.0 253.2,33.4 C253.2,35.6 252.9,36.4 250.7,36.3 C247.9,36.1 245.2,35.9 242.4,35.5 C237.2,34.9 232.1,34.0 226.9,33.1 C224.5,32.7 222.2,32.1 219.8,31.5 C218.1,31.2 217.4,31.8 216.8,33.4 C216.4,34.5 216.2,35.0 215.2,35.7 C214.3,36.2 213.5,36.7 212.7,37.3 C211.3,38.4 210.1,39.7 209.0,41.2 C206.7,44.4 205.2,48.3 203.9,52.0 C200.5,61.3 198.8,71.5 198.5,81.4 C198.3,86.5 197.5,91.4 197.4,96.5 C197.4,98.7 198.0,101.6 196.1,103.2 C194.3,104.8 191.9,105.9 189.9,107.3 C188.1,102.1 187.7,96.7 187.6,91.3 C187.5,86.0 187.7,80.6 188.1,75.3 M263.6,48.2 C265.8,48.8 268.0,49.4 270.3,49.9 C266.5,59.0 266.6,69.2 266.3,78.9 C266.2,83.3 266.3,87.7 266.7,92.0 C267.2,96.5 268.2,100.7 269.1,105.1 C269.3,106.0 269.7,107.6 269.1,108.5 C268.4,109.4 266.1,109.9 265.1,110.4 C261.2,112.2 257.4,114.1 253.4,115.7 C249.3,117.3 245.1,118.2 241.1,120.1 C237.3,121.9 233.3,123.6 229.3,125.0 C225.3,126.5 221.2,127.5 217.4,129.3 C213.8,131.0 210.8,133.3 207.7,135.8 C205.8,130.0 205.1,124.1 204.7,118.0 C204.4,112.1 203.9,106.0 204.5,100.2 C204.8,97.5 204.8,95.1 204.7,92.4 C204.7,90.0 205.2,87.7 205.4,85.3 C205.9,80.1 205.8,74.8 206.5,69.6 C207.9,59.8 210.5,49.4 215.9,40.9 C216.3,40.4 216.6,39.5 217.1,39.1 C217.9,38.4 217.6,38.6 218.6,39.1 C219.6,39.6 220.6,40.1 221.6,40.6 C223.7,41.5 225.9,41.9 228.1,42.5 C230.6,43.2 232.8,44.3 235.3,44.7 C237.8,45.1 240.3,45.1 242.8,45.5 C244.1,45.7 245.4,46.2 246.7,46.5 C247.8,46.8 248.8,46.7 249.9,46.8 C252.1,47.1 254.3,47.7 256.5,47.9 C258.9,48.1 261.1,47.6 263.6,48.2 M182.7,90.8 C183.5,96.8 185.1,102.7 187.4,108.3 C188.2,110.1 189.0,112.6 191.2,113.1 C193.2,113.6 195.6,112.1 197.5,111.6 C199.0,120.4 199.6,129.4 203.5,137.6 C204.0,138.6 204.7,140.5 205.7,141.2 C206.7,141.8 208.0,141.2 209.0,140.8 C213.3,139.1 217.8,138.1 222.3,136.9 C224.5,136.4 226.7,135.9 228.9,135.2 C230.6,134.5 232.3,133.8 234.2,133.5 C238.1,132.8 241.7,131.5 245.4,130.2 C253.2,127.4 261.0,124.9 268.2,120.8 C271.6,118.8 275.2,116.9 278.4,114.5 C281.0,112.6 283.9,109.6 282.6,106.1 C282.3,105.0 281.2,103.2 280.0,102.9 C278.8,102.6 277.8,103.6 276.8,103.9 C275.2,104.2 275.6,102.9 275.4,101.7 C275.3,100.7 275.2,99.7 275.1,98.8 C274.8,96.7 274.6,94.7 274.4,92.6 C273.6,84.1 274.0,75.5 274.0,67.0 C274.0,62.7 275.0,58.9 276.0,54.8 C276.5,52.6 277.0,50.4 277.4,48.2 C277.7,47.0 278.0,45.6 277.6,44.4 C276.9,41.6 272.9,40.9 270.6,40.1 C268.5,39.4 266.5,38.8 264.4,38.4 C263.3,38.1 260.2,38.3 259.5,37.4 C258.7,36.4 259.6,33.3 259.6,32.2 C259.8,30.1 259.9,28.0 260.2,26.0 C260.6,22.6 260.6,19.5 257.9,17.1 C259.6,15.8 260.8,13.0 258.3,11.7 C255.6,10.3 251.8,10.1 248.9,10.9 C245.7,11.7 242.2,11.7 238.9,12.0 C235.4,12.4 231.9,12.9 228.4,13.3 C222.4,14.1 216.3,14.2 210.4,15.5 C207.4,16.1 204.4,16.5 201.4,17.0 C198.3,17.5 196.4,17.9 194.6,20.5 C191.1,25.5 187.8,30.6 185.8,36.4 C184.0,41.9 183.1,47.6 182.6,53.4 C182.0,59.6 181.9,65.8 182.0,72.0 C182.0,78.3 181.9,84.5 182.7,90.8" /><path d="M56.6,336.0 C56.9,335.4 58.0,335.3 58.6,335.1 C59.5,334.7 60.3,334.3 61.1,333.8 C65.3,331.4 69.4,328.9 73.3,326.0 C74.2,325.3 76.5,322.7 77.9,323.1 C78.6,323.3 78.9,324.4 79.2,324.9 C79.8,325.9 80.3,326.8 80.9,327.8 C83.1,331.4 86.0,334.7 89.1,337.5 C95.1,343.0 101.9,346.5 110.0,346.9 C104.7,354.0 99.7,361.5 93.7,368.1 C90.7,371.4 87.4,374.5 84.3,377.7 C83.7,378.2 83.4,378.5 82.7,378.9 C82.0,379.2 81.4,379.3 80.8,379.8 C79.8,380.8 79.8,382.3 80.0,383.5 C74.4,383.8 68.4,381.3 63.3,379.2 C60.4,378.0 57.5,376.7 54.7,375.1 C52.8,374.0 50.7,372.8 49.3,371.1 C54.4,368.4 59.5,365.8 64.4,362.7 C67.8,360.6 73.7,358.1 73.2,353.3 C73.1,352.5 72.8,351.6 72.2,351.1 C71.2,350.5 70.9,351.3 70.0,351.4 C68.6,351.8 66.8,349.8 65.7,349.0 C62.7,346.7 59.7,344.2 57.9,340.9 C57.4,339.8 55.9,337.2 56.6,336.0 M25.5,379.2 C26.3,376.5 22.4,374.4 20.7,373.1 C18.1,371.2 16.4,369.0 14.6,366.3 C7.9,355.7 5.5,342.7 6.1,330.3 C6.2,326.9 6.6,323.4 6.7,320.0 C6.7,318.2 6.6,316.5 7.0,314.7 C7.4,313.1 7.8,311.4 8.2,309.8 C9.1,306.4 9.5,303.0 10.5,299.8 C11.4,296.7 12.6,293.8 14.1,291.0 C15.0,289.1 15.9,286.5 18.5,286.8 C21.6,287.3 24.7,288.9 27.8,289.7 C31.2,290.7 34.6,291.5 38.1,292.3 C41.4,293.1 44.6,294.2 48.0,294.8 C49.7,295.2 51.5,295.3 53.2,295.3 C54.0,295.3 55.4,295.2 55.5,296.3 C55.6,297.4 53.8,298.7 53.0,299.4 C52.0,300.4 51.3,301.4 50.7,302.7 C49.3,305.9 48.1,309.2 47.6,312.6 C47.1,316.0 47.2,319.5 47.2,322.9 C47.1,329.6 48.1,336.2 50.5,342.5 C52.7,348.3 56.2,352.2 60.9,356.1 C56.0,358.5 51.0,361.0 46.1,363.5 C41.6,365.7 37.1,367.6 33.3,370.9 C31.7,372.2 29.9,373.8 28.7,375.5 C27.3,377.7 29.3,379.2 31.4,378.3 C33.7,377.4 36.0,376.3 38.2,375.2 C39.7,374.5 42.1,372.6 43.8,372.7 C45.3,372.7 45.8,374.6 46.5,375.6 C47.5,377.2 48.8,378.7 50.2,380.0 C53.2,382.8 56.7,385.1 60.4,386.9 C64.4,388.8 68.8,390.1 73.3,390.9 C75.7,391.3 78.1,391.5 80.6,391.4 C82.4,391.4 85.0,391.4 86.7,390.5 C88.1,389.7 87.4,388.1 88.8,387.3 C90.3,386.4 91.9,385.8 93.3,384.9 C96.7,382.6 98.7,379.7 100.7,376.2 C105.3,368.2 110.9,360.9 114.3,352.3 C115.1,350.3 115.6,347.9 116.9,346.1 C117.7,345.0 119.7,344.3 119.9,342.7 C120.1,341.2 119.5,337.9 118.0,337.2 C116.3,336.4 113.8,336.4 111.9,336.0 C103.8,334.1 96.2,331.2 89.7,325.8 C88.1,324.4 86.6,323.0 85.1,321.4 C84.0,320.3 82.9,319.1 83.1,317.4 C83.3,315.9 84.5,313.8 82.1,313.3 C80.5,313.1 78.2,313.9 76.9,314.8 C72.9,317.3 69.1,320.3 65.3,323.1 C61.8,325.7 58.2,328.1 54.7,330.6 C55.1,324.7 54.9,318.4 56.3,312.6 C57.0,309.8 58.2,307.2 59.7,304.8 C61.3,302.3 62.5,299.7 63.9,297.1 C64.7,297.5 65.9,298.5 66.6,297.3 C67.1,296.6 66.8,294.6 66.6,293.8 C65.4,287.5 55.9,286.9 51.0,285.8 C43.9,284.3 36.9,282.5 29.8,281.4 C26.5,280.9 23.2,280.8 19.9,280.6 C18.2,280.5 16.2,280.1 15.2,281.8 C14.9,282.3 14.9,282.9 14.5,283.3 C14.3,283.6 13.5,284.0 13.1,284.3 C12.0,285.1 11.0,286.2 10.2,287.3 C8.5,289.6 7.3,292.3 6.2,294.9 C3.5,301.3 2.0,308.0 1.1,314.9 C0.3,321.9 -0.3,329.1 0.1,336.2 C1.0,349.2 4.5,362.4 12.7,372.8 C14.5,375.1 16.6,377.1 19.3,378.5 C20.6,379.2 24.7,381.6 25.5,379.2" /><path d="M118.7,532.1 C116.1,535.3 113.6,538.6 111.3,542.0 C109.1,545.5 106.9,549.1 104.7,552.6 C102.5,556.0 100.1,559.3 98.4,562.9 C97.4,565.0 97.3,567.7 94.5,567.6 C90.9,567.5 87.5,566.5 84.3,564.8 C77.9,561.4 72.6,556.6 68.6,550.6 C64.4,544.3 61.2,537.2 58.9,530.1 C57.6,526.1 56.6,522.1 55.6,518.0 C55.2,516.0 54.6,514.0 54.6,511.9 C54.6,510.9 54.7,510.0 54.7,509.1 C54.8,508.2 55.3,506.7 54.3,506.6 C54.6,504.1 54.9,501.5 55.2,499.0 C55.4,497.2 55.4,495.1 57.0,493.9 C58.5,492.8 60.9,492.7 62.7,492.3 C64.9,491.8 67.1,491.2 69.2,490.6 C73.6,489.2 77.8,487.5 82.0,485.7 C84.2,484.8 86.3,483.9 88.3,482.8 C89.9,481.9 91.1,480.5 92.2,482.6 C99.8,497.2 105.4,513.4 117.9,524.7 C118.9,525.6 120.5,526.7 120.7,528.2 C120.8,529.6 119.5,531.0 118.7,532.1 M128.7,521.8 C126.9,520.6 124.8,520.4 123.0,519.3 C120.9,518.0 119.6,515.1 118.2,513.2 C114.9,508.6 111.5,504.0 108.5,499.3 C105.8,494.9 103.3,490.4 100.7,486.0 C99.3,483.7 97.9,481.5 96.4,479.4 C95.7,478.5 94.0,475.3 92.5,475.5 C91.8,475.5 91.8,476.2 91.3,476.5 C91.0,476.6 90.8,476.5 90.5,476.5 C89.6,476.6 88.5,476.1 87.5,476.2 C85.1,476.5 82.4,477.5 80.0,478.2 C75.1,479.7 70.4,481.8 65.6,483.5 C60.7,485.2 55.4,486.4 51.0,489.0 C49.2,490.1 47.3,491.7 49.0,493.8 C49.6,494.6 50.5,494.6 51.2,495.2 C51.8,495.7 51.5,495.9 51.4,496.8 C51.3,497.3 51.2,497.8 51.1,498.2 C50.4,503.3 49.7,508.4 50.4,513.6 C51.1,518.8 52.2,524.0 53.7,529.0 C58.3,544.9 66.5,563.8 82.7,570.8 C86.5,572.5 90.2,572.9 94.2,573.6 C95.4,573.9 96.5,574.4 97.6,575.0 C98.2,575.3 98.8,575.7 99.5,575.6 C100.9,575.5 102.1,573.2 102.8,572.1 C105.4,568.1 108.3,564.2 111.0,560.3 C112.4,558.2 113.7,556.1 114.8,553.9 C115.5,552.6 116.0,550.4 117.8,550.5 C118.3,551.1 118.7,551.8 119.2,552.4 C119.4,552.7 119.7,553.0 119.9,553.3 C120.2,554.0 120.2,553.5 120.0,554.3 C119.9,555.5 118.8,556.7 118.2,557.6 C114.4,562.7 110.4,567.7 106.4,572.7 C102.5,577.7 98.5,582.5 93.9,586.8 C93.0,587.7 92.0,588.8 90.6,588.8 C89.3,588.9 88.0,588.2 86.7,588.0 C84.0,587.5 81.2,587.4 78.6,586.6 C77.2,586.2 76.1,585.4 74.7,585.3 C73.5,585.2 72.7,585.0 71.6,584.4 C69.2,582.9 66.6,582.2 64.2,580.8 C59.3,578.0 54.2,573.9 50.5,569.5 C48.7,567.2 47.1,564.7 45.3,562.4 C43.5,560.2 41.7,558.0 40.1,555.6 C37.1,550.8 34.6,545.7 32.7,540.4 C31.8,537.6 31.3,535.8 33.7,533.8 C36.0,531.9 38.1,529.9 40.0,527.6 C40.9,526.5 45.1,522.3 42.0,521.7 C40.3,521.3 37.5,524.2 36.3,525.2 C34.2,526.9 32.1,528.6 29.7,529.8 C27.0,531.2 26.9,532.9 27.0,535.8 C27.0,541.7 29.2,547.4 31.5,552.8 C33.9,558.3 36.8,563.6 40.3,568.5 C47.1,577.8 54.6,587.2 65.1,592.4 C70.3,595.0 75.9,596.4 81.7,597.0 C85.0,597.4 88.5,597.5 91.9,597.4 C93.3,597.4 95.2,597.6 96.6,597.1 C97.7,596.8 97.9,596.0 98.3,595.0 C99.2,592.5 101.7,591.2 103.4,589.3 C105.2,587.3 107.1,585.3 109.0,583.3 C113.0,579.0 115.7,573.9 118.9,568.9 C120.7,566.2 122.7,563.6 124.2,560.7 C125.5,558.4 127.1,555.3 127.5,552.7 C127.9,550.7 126.2,547.6 123.9,547.5 C122.7,547.4 121.7,548.4 120.5,548.5 C120.2,548.6 119.0,548.3 118.5,548.5 C120.5,543.8 123.3,539.3 125.5,534.8 C126.7,532.2 127.9,529.6 129.0,526.9 C129.8,524.9 130.8,523.2 128.7,521.8" /><path d="M159.7,149.1 C163.5,157.9 169.6,164.9 175.9,172.1 C179.2,175.8 182.6,179.3 186.6,182.3 C190.3,185.1 194.1,187.9 197.9,190.7 C194.1,195.5 189.8,200.0 185.6,204.5 C181.7,208.6 177.8,212.9 175.3,218.0 C175.0,215.5 173.4,214.0 171.3,213.0 C168.6,211.8 166.1,210.4 163.8,208.6 C158.9,204.7 154.3,200.0 150.1,195.3 C141.5,185.8 136.0,173.9 130.1,162.7 C140.0,158.2 149.8,153.7 159.7,149.1 M128.1,171.3 C129.5,175.4 131.6,179.3 133.5,183.1 C135.4,186.9 137.4,190.7 139.6,194.4 C143.8,201.3 148.9,207.7 155.4,212.5 C158.6,214.9 162.1,217.3 165.6,219.1 C167.3,219.9 169.1,220.6 171.1,220.5 C172.2,220.4 173.9,219.4 174.8,220.3 C175.7,221.2 175.4,223.1 177.3,222.2 C178.9,221.4 180.4,219.8 181.5,218.6 C184.5,215.4 187.6,212.1 190.4,208.8 C193.2,205.6 195.5,201.9 197.9,198.4 C199.2,196.4 200.5,194.5 201.8,192.5 C202.7,191.1 204.0,189.7 203.9,187.9 C203.8,184.5 199.6,182.1 197.1,180.2 C194.2,177.8 191.4,175.4 188.9,172.6 C186.2,169.6 182.9,167.0 179.9,164.2 C176.8,161.1 173.9,157.8 171.1,154.5 C168.9,151.8 166.7,149.0 164.8,146.1 C163.3,143.8 161.6,142.1 158.6,142.5 C156.3,143.1 154.0,143.4 151.7,144.3 C149.5,145.1 147.3,146.2 145.1,147.2 C141.2,149.1 137.5,151.4 133.7,153.4 C132.8,153.9 131.9,154.3 131.1,154.9 C130.7,155.3 130.3,155.9 129.8,156.1 C129.4,156.3 129.2,156.2 128.8,156.4 C127.3,156.8 126.7,157.7 125.9,159.0 C124.6,161.2 124.7,162.4 125.8,164.7 C126.9,166.7 127.3,169.1 128.1,171.3" /><path d="M284.4,280.6 C285.4,282.1 287.0,281.4 287.9,280.2 C290.7,276.9 293.3,273.2 295.8,269.6 C298.3,265.9 300.6,262.2 303.5,258.8 C306.4,255.4 309.3,252.0 312.3,248.7 C323.5,236.2 334.9,224.0 347.2,212.7 C350.2,209.9 353.3,207.2 356.2,204.3 C357.5,203.0 359.0,201.6 358.9,199.7 C358.9,198.3 358.0,196.5 356.8,195.8 C354.1,194.3 350.6,198.0 348.6,199.5 C347.1,200.5 345.5,201.1 343.9,202.0 C342.5,202.8 341.1,203.9 339.9,205.0 C337.3,207.4 334.4,209.4 331.7,211.7 C328.9,214.1 326.5,216.8 323.8,219.2 C320.9,221.8 317.8,224.0 315.3,226.9 C312.7,229.8 310.6,233.0 307.9,235.8 C302.3,241.8 297.7,248.6 292.9,255.2 C290.6,258.5 288.9,262.0 287.3,265.6 C286.5,267.4 285.8,269.2 285.0,271.1 C284.3,272.8 284.3,274.6 284.0,276.4 C284.4,276.5 284.1,279.9 284.4,280.6" /><path d="M907.4,576.2 C909.5,573.6 910.9,570.0 912.4,567.0 C914.1,563.9 915.6,561.0 916.3,557.5 C916.6,555.8 916.8,554.1 917.2,552.4 C917.6,550.9 918.1,549.5 917.9,547.8 C917.8,546.1 917.0,540.9 914.4,541.5 C912.8,541.8 913.1,543.5 913.1,544.6 C913.1,546.0 913.0,547.4 912.6,548.7 C911.6,551.7 909.4,554.5 907.9,557.4 C906.5,560.2 904.9,562.7 902.8,565.1 C900.8,567.3 898.6,569.5 896.3,571.4 C894.2,573.0 891.8,574.3 890.3,576.6 C889.4,577.9 889.2,578.3 887.6,578.7 C886.3,579.0 885.0,579.5 883.9,580.3 C882.6,581.2 881.7,582.2 880.3,582.8 C879.0,583.3 877.6,583.7 876.3,584.1 C873.3,585.2 870.7,587.1 867.6,588.2 C866.0,588.7 864.4,589.2 862.8,589.6 C861.5,590.0 860.0,590.3 858.9,591.2 C857.2,592.6 856.2,596.3 857.7,598.3 C859.4,600.4 863.3,599.1 865.5,598.8 C865.6,598.9 865.6,599.1 865.6,599.2 C869.3,598.5 873.1,598.1 876.7,596.9 C878.6,596.3 880.3,595.4 882.0,594.4 C883.5,593.6 885.0,593.3 886.6,592.8 C888.0,592.4 889.1,591.6 890.0,590.4 C891.1,588.9 891.6,589.3 893.3,589.0 C896.1,588.4 898.4,585.2 900.3,583.3 C902.7,581.0 905.3,578.7 907.4,576.2" /><path d="M377.6,128.9 C378.3,127.9 380.5,127.0 381.6,126.3 C383.0,125.4 384.4,124.5 385.7,123.5 C388.2,121.7 390.0,122.9 392.1,124.6 C396.2,127.8 397.8,132.0 397.5,137.0 C397.5,138.5 397.9,141.0 396.8,142.2 C395.7,143.3 393.5,143.2 392.1,143.5 C390.2,143.9 387.4,146.2 385.4,145.5 C383.7,144.9 384.3,141.9 384.2,140.6 C383.9,138.1 383.1,135.7 381.6,133.7 C380.8,132.6 379.9,131.7 378.8,131.0 C378.0,130.3 377.0,130.0 377.6,128.9 M370.2,136.5 C371.8,136.8 373.4,137.5 374.9,138.1 C375.9,138.5 377.2,138.9 378.0,139.6 C379.4,140.8 378.8,142.7 379.1,144.2 C379.3,145.1 379.8,145.9 379.4,146.8 C379.0,147.9 377.9,148.1 377.3,149.0 C376.5,150.3 377.6,152.2 378.3,153.3 C379.6,155.2 381.3,154.2 383.3,153.9 C385.7,153.6 388.1,153.5 390.4,152.7 C392.3,152.1 393.8,150.6 395.2,152.6 C395.8,153.3 395.9,153.9 396.9,153.7 C397.8,153.4 398.7,152.3 399.3,151.7 C403.0,147.9 403.9,142.7 403.9,137.7 C404.1,132.0 402.1,126.7 399.2,122.0 C398.6,121.0 397.9,119.8 397.0,119.1 C396.1,118.3 395.0,118.0 394.2,117.1 C393.0,115.8 393.3,113.1 391.4,112.5 C389.4,111.9 386.5,114.4 384.9,115.4 C382.8,116.9 380.7,118.4 378.6,120.0 C374.2,123.4 369.3,126.6 365.3,130.5 C363.9,131.8 363.4,134.1 364.7,135.6 C366.1,137.2 368.4,136.2 370.2,136.5" /><path d="M607.3,540.1 C606.5,535.1 605.0,530.3 603.3,525.5 C602.2,522.4 599.6,517.2 595.4,517.5 C590.9,517.8 593.9,523.7 594.4,526.1 C596.1,535.4 597.1,544.8 598.5,554.2 C599.1,558.8 599.3,563.5 600.4,568.1 C601.0,570.3 601.7,572.4 602.7,574.5 C603.3,575.9 604.0,577.6 605.5,578.2 C610.0,580.0 608.8,572.1 608.8,570.1 C608.7,565.3 608.6,560.5 608.4,555.7 L608.8,555.7 C608.1,550.5 608.2,545.3 607.3,540.1" /><path d="M70.4,627.3 C68.0,628.1 66.1,628.7 63.5,628.4 C61.6,628.3 59.7,627.9 57.8,627.6 C53.0,627.0 48.4,625.7 43.9,623.7 C39.9,621.9 36.1,619.7 32.8,616.8 C31.0,615.3 29.4,613.6 27.8,611.8 C26.7,610.6 25.7,609.7 24.0,609.5 C24.4,612.0 24.9,613.9 26.1,616.2 C27.1,618.0 28.2,619.8 29.4,621.4 C31.9,624.8 35.0,627.7 38.5,630.1 C42.0,632.5 45.8,634.4 49.9,635.5 C52.1,636.0 54.4,636.4 56.7,636.8 C58.9,637.2 61.0,637.6 63.2,637.3 C65.3,637.1 67.4,637.0 69.5,636.4 C71.0,635.9 72.6,634.9 73.9,634.0 C76.6,632.2 73.7,626.2 70.4,627.3" /><path d="M151.1,64.3 C152.3,65.9 155.0,65.9 154.8,63.5 C154.6,61.3 153.9,59.1 153.2,57.1 C152.5,54.9 152.6,52.6 152.6,50.4 C152.5,45.1 152.7,40.0 153.7,34.7 C154.6,29.7 155.2,24.6 156.4,19.6 C157.5,14.7 159.5,10.1 160.7,5.2 C161.1,3.7 161.4,0.8 159.2,0.5 C157.3,0.2 156.3,2.7 155.6,4.0 C153.2,8.0 150.7,11.7 149.3,16.2 C148.0,20.2 147.1,24.5 146.6,28.7 C146.2,33.1 146.2,37.6 146.0,42.0 C146.4,47.2 146.2,52.9 147.8,57.8 C148.6,60.0 149.7,62.4 151.1,64.3" /><path d="M840.6,84.5 C839.9,86.2 839.5,88.1 840.8,89.7 C843.0,92.7 846.6,85.9 847.2,84.1 C848.3,80.0 849.8,75.9 850.5,71.7 C851.2,67.4 850.8,62.8 851.0,58.4 C850.6,53.2 849.9,48.1 848.7,43.1 C847.6,38.6 846.4,34.0 842.8,31.0 C841.3,29.8 840.3,30.7 840.0,32.5 C839.8,34.5 840.3,36.4 841.2,38.1 C843.3,42.1 843.3,46.8 843.8,51.3 C844.7,60.3 845.2,69.2 842.9,77.9 C842.3,80.2 841.5,82.4 840.6,84.5" /><path d="M74.5,184.3 C75.0,186.3 75.6,188.3 76.4,190.3 C77.8,194.1 79.7,197.7 82.0,201.0 C85.8,206.5 90.8,211.7 96.3,215.6 C98.1,216.8 102.5,220.4 104.8,219.2 C108.0,217.6 103.7,213.4 102.4,212.2 C99.7,209.7 97.1,207.2 94.4,204.7 C91.6,202.2 89.6,199.1 87.5,196.1 C85.3,193.1 83.2,190.1 81.3,186.9 C80.2,185.3 79.4,183.6 78.4,182.0 C77.5,180.6 76.2,179.6 75.1,178.5 C74.2,178.9 74.3,178.8 74.0,179.7 C73.9,180.0 74.0,180.8 74.0,181.1 C74.0,182.2 74.3,183.2 74.5,184.3" /><path d="M304.0,215.7 C309.1,211.1 314.6,207.3 319.4,202.4 C320.6,201.1 321.5,200.4 320.5,198.7 C319.8,197.6 319.0,197.0 317.8,197.8 C315.0,199.6 312.3,201.9 309.6,203.9 C304.1,208.0 298.3,212.1 293.3,216.8 C291.0,219.0 288.9,221.3 287.2,223.9 C285.3,226.6 283.9,229.4 286.0,232.5 C292.0,226.9 297.9,221.2 304.0,215.7" /><path d="M921.5,593.5 C920.6,593.3 919.1,594.3 918.5,594.7 C915.8,596.5 913.0,598.1 910.3,599.8 C907.8,601.4 905.3,603.1 902.8,604.7 C900.8,606.1 899.4,607.8 900.1,610.4 C900.5,611.6 901.0,612.9 902.4,612.3 C903.4,611.8 904.3,611.3 905.4,610.9 C908.2,609.9 911.0,608.9 913.6,607.5 C918.1,605.0 922.3,601.2 923.0,595.8 C922.6,595.1 922.5,593.7 921.5,593.5" /><path d="M624.7,539.2 C623.7,538.2 622.6,538.2 622.1,539.4 C621.6,540.6 622.3,542.8 622.5,544.0 C622.8,546.0 623.1,548.1 623.4,550.1 C623.6,551.2 623.8,554.9 625.3,555.4 C627.7,556.1 627.7,550.3 628.0,549.2 C627.5,547.5 627.0,545.8 626.5,544.1 C626.0,542.6 625.8,540.4 624.7,539.2" /><path d="M225.2,439.6 C224.6,439.4 224.1,439.5 224.0,438.8 C223.9,438.2 224.8,437.7 224.9,437.2 C225.4,435.4 223.6,437.3 223.0,437.8 C223.6,439.4 224.2,440.9 224.8,442.5 C225.5,442.2 226.2,441.9 227.0,441.6 C226.3,440.7 226.2,440.1 225.2,439.6" /><path d="M557.0,160.3 C558.2,160.7 559.9,160.2 561.1,159.9 C562.3,159.7 563.6,159.4 564.7,159.0 C567.4,157.9 567.2,154.7 566.5,152.2 C565.7,148.8 563.8,145.5 562.3,142.4 C561.5,140.8 560.8,139.1 560.0,137.5 C559.5,136.2 558.8,134.5 557.2,134.5 C554.7,134.4 555.9,140.3 556.3,141.7 C557.3,145.3 559.2,148.5 560.7,151.8 C559.3,151.9 557.8,152.1 556.4,152.1 C554.9,152.0 554.5,152.1 554.1,153.7 C553.6,156.1 554.3,159.4 557.0,160.3" /><path d="M534.4,131.4 C537.1,131.2 539.8,130.9 542.5,130.6 C544.4,130.4 547.9,130.4 549.3,128.8 C550.3,127.7 550.1,125.5 549.2,124.3 C548.2,123.0 545.9,123.6 544.4,123.6 C540.4,123.6 536.5,124.2 532.9,125.9 C531.6,126.6 528.7,127.7 529.0,129.5 C529.4,131.7 532.7,131.5 534.4,131.4" /><path d="M545.6,162.5 C543.4,163.1 543.8,166.9 544.5,168.6 C545.6,171.0 548.2,171.6 550.6,171.4 C551.7,171.3 553.4,171.7 554.3,170.8 C555.1,169.8 555.1,167.9 554.5,166.8 C553.7,165.4 551.6,164.6 550.2,163.9 C549.0,163.3 547.0,162.2 545.6,162.5" /><path d="M545.9,142.4 C546.1,140.2 544.8,135.3 541.9,135.5 C540.5,135.5 539.3,137.5 539.0,138.8 C538.8,140.1 539.1,141.4 539.5,142.6 C540.0,144.7 540.9,147.9 543.6,147.4 C545.9,147.0 545.9,144.3 545.9,142.4" /><path d="M567.2,144.7 C567.8,145.3 568.7,145.7 569.5,145.3 C570.7,144.7 570.5,143.3 570.5,142.2 C570.7,142.2 570.8,142.1 571.0,142.1 C570.3,140.1 569.8,136.1 567.4,135.5 C565.0,135.0 564.8,137.6 565.0,139.3 C565.3,141.1 565.9,143.4 567.2,144.7" /><path d="M492.2,144.5 C491.0,144.6 488.8,145.1 489.0,146.6 C489.2,148.8 492.6,149.2 494.4,149.4 C496.4,149.6 499.2,149.4 497.3,146.9 C496.1,145.3 494.1,144.6 492.2,144.5" /><path d="M392.2,403.5 C391.8,404.3 391.4,405.1 391.0,405.9 C392.3,406.1 393.6,406.3 394.9,406.5 C395.0,405.4 392.9,404.1 392.2,403.5" /></g></g></svg>