<svg xmlns="http://www.w3.org/2000/svg" viewBox="69 41 887 687" version="1.1"><g id="Character/meditating" stroke="none" stroke-width="1" fill="none" fill-rule="evenodd"><path d="M350,354.1 C353.1,385.8 356.3,417.5 359.4,449.2 C376.5,439.5 393.6,429.7 410.7,420 L410.7,492.2 L410.7,511.2 C410.7,512.8 409.7,518.6 410.7,520.1 C411.5,521.3 417.8,521.3 419.3,521.5 C429,522.9 438.6,524.1 448.3,525.2 C473.9,528 501.3,532 527,528.8 C549.3,526 570.9,518 591.3,508.8 C598.4,505.6 605.5,502.1 612.4,498.4 C613.9,497.6 619.2,495.7 620,494.1 C620.7,492.8 619.1,488.2 618.9,486.9 C618.1,481.1 617.2,475.3 616.4,469.5 L604.3,388.6 L627.1,411.3 C628.8,413.1 632.2,418.1 634.7,418.9 C636.5,419.5 641,417.7 642.7,417.4 C655.6,414.9 668.5,412.4 681.3,409.9 C684.3,409.3 691.1,409.4 693.6,407.6 C695,406.6 695.1,404.6 695.5,402.7 C698.7,390.4 701.8,378.1 705,365.8 C705.5,363.6 708.7,356.6 707.9,354.4 C707.6,353.6 706.2,353 705.3,352.5 C685.9,340.7 666.5,328.8 647.1,316.9 C636.4,310.4 625.8,303.9 615.2,297.4 C610.7,294.7 605.2,289.8 600.2,288.3 C597,287.3 592.5,288.1 589.2,288 C582.6,287.8 576,287.6 569.5,287.4 C568.4,287.4 564.8,286.6 563.9,287.2 C563.2,287.7 563.5,288.5 563.3,289.7 C562.7,292.6 562.7,295.8 562.4,298.8 C562.2,301.2 562.6,305.6 561.6,307.7 C560.9,309.1 561.7,308.6 560.8,309.2 C559.7,310 556.1,309.8 554.8,309.9 C548.4,310.7 541.9,311.4 535.4,312.2 C527.8,313.1 520,314.8 512.3,314 C500.6,312.8 488,312.9 476.5,310.4 C473.5,309.8 472.4,308.1 470.1,305.8 C465.6,301.3 461.2,296.8 456.6,292.3 C454.4,290.1 455.4,290.5 453.1,291.3 C450.2,292.4 447.3,294.9 444.7,296.5 C434.7,302.5 424.7,308.6 414.7,314.7 L353.8,351.8 C352.5,352.6 351.3,353.3 350,354.1" id="Accent" fill="#000" /></g></svg>