<svg xmlns="http://www.w3.org/2000/svg" viewBox="37 26 949 717" version="1.1"><g stroke="none" stroke-width="1" fill="none" fill-rule="evenodd"><path d="M436.7,309.5 C426.1,310.1 415.4,309.9 404.8,309.5 C403.7,309.5 401.2,309.0 400.6,309.6 C399.8,310.4 400.0,314.3 399.9,315.3 C399.0,322.8 398.0,330.2 397.1,337.7 C396.7,341.1 396.3,344.5 395.8,348.0 C395.7,348.9 394.5,353.1 395.1,354.0 C396.1,355.5 403.5,355.9 405.5,356.2 L428.8,360.7 C431.0,361.1 436.5,361.2 437.6,363.0 C438.2,364.1 437.8,367.0 437.9,368.3 L438.5,378.6 C439.3,392.0 440.2,405.5 441.0,419 C457.5,417.6 473.9,416.3 490.4,415.0 C494.4,414.7 498.4,414.3 502.4,414.0 C503.4,413.9 505.4,414.1 506.1,413.6 C507.8,412.5 509.3,407.5 510.2,405.8 C512.5,401.3 514.9,396.7 517.2,392.2 C519.5,387.9 521.7,383.5 524.0,379.2 C524.5,378.1 526.0,376.2 526,375.0 C525.9,373.6 523.9,371.2 523.2,370.0 C521.4,366.6 519.5,363.1 517.6,359.7 C508.3,342.7 499.1,325.7 489.8,308.7 C489.3,307.8 488.3,304.7 487.4,304.2 C485.6,303.3 479.3,305.1 477.4,305.4 C463.9,306.9 450.3,308.6 436.7,309.5" fill="#000" /></g></svg>