<svg xmlns="http://www.w3.org/2000/svg" viewBox="124 20 788 728" version="1.1"><g stroke="none" stroke-width="1" fill="none" fill-rule="evenodd"><g transform="translate(135.9, 31.9)" fill="#000"><path d="M489.6,246.7 C488.0,248.4 490.6,249.6 491.7,250.0 C491.5,248.4 490.8,247.7 489.6,246.7 L489.6,246.7 Z M272.8,555.8 C272.1,554.3 271.2,553.2 269.6,553.8 C266.8,555.0 272.4,555.8 272.8,555.8 L272.8,555.8 Z M511.8,324.1 C513.0,324.2 517.6,323.9 516.2,321.4 C514.5,318.4 512.2,323.2 511.8,324.1 L511.8,324.1 Z M428.5,298.1 C430.9,296.0 433.1,292.8 433.1,289.5 C430.8,291.0 429.6,295.8 428.5,298.1 L428.5,298.1 Z M487.1,256.1 C489.1,256.2 487.3,253.3 487.3,252.7 C487.3,251.5 488.5,250.4 488.3,249.0 C488.3,248.9 486.2,244.3 485.7,244.0 C484.2,243.2 483.3,244.7 481.9,245.2 C479.9,245.9 478.9,245.3 476.7,245.5 C474.8,245.7 473.2,246.6 471.2,246.6 C470.7,246.6 470.2,245.6 469.6,245.7 C468.8,245.7 468.7,246.8 468.1,246.9 C466.0,247.1 465.9,246.2 463.9,245.4 C460.6,244.1 458.3,247.2 458.4,250.8 C458.5,255.6 463.5,257.5 467.3,258.6 C472.2,260.0 474.9,260.9 480.0,260.0 C481.4,259.7 482.9,260.2 484.0,259.2 C485.5,257.9 484.7,255.0 486.5,253.7 C486.7,254.5 486.9,255.3 487.1,256.1 L487.1,256.1 Z M313.8,446.2 C314.2,449.3 313.4,450.9 316.4,453.0 C318.2,454.2 320.4,455.0 322.3,456.3 C325.1,458.1 329.2,459.2 331.6,461.3 C333.2,462.6 333.4,466.3 335.6,466.7 C337.4,467.1 339.6,463.8 340.2,462.3 C340.9,460.7 340.4,459.3 340.7,457.7 C340.9,456.6 341.7,456.4 341.6,455.1 C341.4,453.7 340.1,453.0 339.5,451.9 C339.0,451.0 338.9,449.6 338.5,448.8 C337.5,447.0 335.4,443.2 333.5,442.0 C332.0,446.2 330.8,442.0 328.6,440.8 C327.8,440.8 326.9,440.7 326.1,440.8 C325.7,440.4 325.3,440.0 324.8,439.6 C323.8,439.5 322.2,440.0 321.3,440.3 C320.8,440.2 320.3,440.1 319.7,440.1 C319.1,440.3 318.8,440.7 318.9,441.2 C319.2,441.1 317.6,442.1 317.4,442.2 C314.2,444.4 311.2,445.3 310.6,450.0 C311.7,448.7 312.7,447.4 313.8,446.2 L313.8,446.2 Z M339.2,278.3 C335.7,269.3 336.8,261.3 337.1,251.9 C337.2,249.7 337.7,244.9 335.4,243.5 C332.5,241.6 330.1,245.8 328.6,247.5 C326.0,250.5 322.4,253.2 321.0,257.0 C319.9,260.3 321.1,264.5 322.0,267.8 C322.9,271.4 324.1,276.3 327.4,278.3 C330.9,280.4 335.7,280.2 339.2,278.3 L339.2,278.3 Z M461.8,470.0 C461.3,463.1 451.7,465.5 447.4,467.7 C444.1,469.2 442.3,471.7 440.3,474.6 C438.0,477.8 437.2,478.8 437.4,482.7 C437.6,486.2 437.4,489.8 438.3,493.3 C438.7,495.1 438.8,495.4 440.0,496.7 C440.0,496.7 442.1,498.7 441.5,498.4 C444.2,499.9 448.1,500.2 451.3,500.4 C455.7,500.8 456.8,500.8 458.6,496.6 C459.0,497.3 459.3,498.0 459.7,498.8 C459.8,498.3 461.0,492.0 460.8,492.1 C460.3,492.2 459.7,493.7 459.5,494.0 C459.6,491.2 461.7,489.0 462.6,486.5 C463.6,484.1 463.9,481.5 464.6,479.0 C465.3,476.7 466.1,473.4 465.4,471.0 C464.5,467.7 464.3,468.7 461.8,470.0 L461.8,470.0 Z M519.8,317.7 C521.4,319.2 520.0,321.6 520.2,323.4 C522.3,322.1 521.6,321.4 522.4,319.3 C522.9,317.9 524.5,315.3 525.8,317.5 C526.4,318.5 524.5,319.8 525.8,320.3 C526.5,320.6 528.6,318.1 528.9,317.7 C531.4,315.0 533.1,312.2 533.3,308.4 C533.3,307.4 533.3,304.9 533.0,304.3 C531.9,302.6 529.1,303.6 529.3,300.5 C530.5,301.1 531.6,301.6 532.7,302.2 C533.0,298.7 529.3,296.6 527.7,293.9 C525.9,290.7 524.8,288.4 521.8,285.7 C520.5,284.5 518.3,281.9 516.6,281.3 C515.2,280.8 514.6,281.5 513.3,281.5 C510.4,281.5 506.1,280.8 510.4,283.9 C509.5,284.3 508.4,284.6 507.6,285.2 C507.1,285.7 506.9,287.1 506.2,287.4 C504.8,288.1 503.8,286.7 502.2,288.3 C500.6,289.9 502.3,291.0 501.9,291.7 C500.9,293.8 499.4,292.7 499.4,295.9 C499.5,301.1 502.5,307.3 504.1,312.2 C505.1,315.0 506.2,319.5 510.2,318.3 C510.0,319.7 509.7,321.1 510.6,322.3 C511.4,321.3 511.7,319.1 512.3,318.0 C513.1,316.3 514.5,314.6 515.4,313.0 C515.3,315.6 515.0,316.3 513.2,318.3 C515.5,318.6 518.4,320.5 519.8,317.7 L519.8,317.7 Z M348.4,393.6 C350.6,392.0 347.8,390.1 352.0,391.1 C353.1,391.3 352.0,392.6 353.6,392.6 C354.2,392.6 355.8,391.1 356.2,390.7 C356.6,390.4 358.3,388.1 358.6,387.9 C358.1,388.2 360.7,387.1 359.9,387.8 C361.5,386.6 362.7,384.5 363.4,382.0 C365.1,375.9 364.8,368.6 361.3,363.3 C359.8,361.1 358.6,358.4 356.4,356.9 C353.3,354.9 348.3,353.7 344.9,352.5 L346.0,349.8 C336.7,354.0 330.3,363.8 329.5,373.8 C329.2,377.4 328.2,382.0 330.4,385.1 C332.7,388.5 338.4,392.0 341.6,388.3 C341.1,390.3 342.5,392.8 344.7,393.3 C345.5,393.5 346.3,392.9 346.7,393.0 C347.1,393.0 348.1,393.6 348.4,393.6 L348.4,393.6 Z M263.0,185.2 C256.7,184.4 257.7,195.7 258.8,199.1 C259.8,201.9 263.2,205.7 265.0,208.1 C267.1,210.9 270.0,213.0 273.0,214.8 C274.0,215.4 274.8,215.6 275.7,216.0 C276.0,215.7 276.4,215.5 276.8,215.5 C277.2,216.1 277.8,216.6 278.5,217.0 C280.8,217.7 284.5,217.6 286.8,217.5 C290.5,217.3 294.7,215.2 298.3,214.5 C300.0,214.2 301.0,214.1 302.5,213.2 C303.2,212.7 304.7,209.3 304.9,212.7 C305.8,212.1 305.5,211.2 306.2,210.7 C306.9,210.3 309.0,209.9 309.7,209.1 C310.8,207.8 312.3,205.0 313.0,203.3 C313.5,202.2 314.5,199.5 314.5,198.3 C314.3,195.9 313.5,196.5 311.5,195.5 C310.1,194.8 309.3,194.3 308.0,193.9 C307.8,193.9 307.4,194.7 307.2,194.6 C306.7,194.5 306.5,194.0 306.2,193.9 C303.7,193.1 300.8,190.7 297.7,190.9 C296.4,191.0 295.1,193.0 294.4,192.9 C293.4,192.8 293.9,190.6 293.2,189.8 C291.3,187.8 285.1,188.2 282.7,187.8 C276.1,186.9 269.5,186.0 263.0,185.2 L263.0,185.2 Z M482.1,357.0 C482.7,352.3 483.5,347.6 478.3,345.3 C476.4,344.4 474.8,344.7 472.8,344.5 C470.2,344.2 470.6,343.1 468.7,345.9 C467.7,344.5 468.4,344.1 466.6,343.9 C465.9,343.8 462.8,345.9 462.0,346.2 C458.6,347.6 454.3,347.4 451.8,350.2 C449.3,352.9 447.3,355.5 446.3,359.2 C445.7,361.1 445.4,363.0 444.7,364.8 C444.0,366.8 442.5,368.5 441.9,370.5 C439.7,378.5 449.1,385.9 455.7,388.0 C456.5,387.8 457.3,387.9 458.1,388.2 C458.7,388.5 459.2,389.0 459.7,389.5 C461.8,390.2 462.3,389.9 464.4,389.0 C467.8,387.4 471.9,386.9 474.5,390.6 C475.3,386.3 478.3,388.8 479.7,386.1 C480.5,384.6 478.8,380.4 479.8,379.3 C481.5,377.4 486.7,380.7 486.6,376.4 C486.5,374.8 484.8,374.3 484.1,373.1 C483.0,370.8 483.6,368.5 485.2,366.5 C485.3,366.8 485.9,369.1 486.6,368.5 C488.6,366.9 485.4,364.4 484.7,363.6 C483.5,362.2 482.4,361.1 482.7,359.1 C482.9,357.9 484.8,356.6 484.7,355.4 C484.7,354.5 482.3,356.8 482.1,357.0 L482.1,357.0 Z M390.6,407.6 C390.8,410.9 388.7,411.3 387.3,413.6 C386.9,414.2 386.9,415.6 386.4,416.6 C385.4,418.2 384.7,418.3 384.4,420.0 C384.4,419.8 384.9,421.6 384.9,421.8 C385.1,424.2 383.4,426.0 383.9,428.6 C384.5,432.2 387.2,436.2 389.2,439.1 C393.5,445.9 399.6,451.1 407.9,451.6 C413.5,451.9 426.6,449.7 427.7,443.9 C427.4,443.2 427.2,442.5 426.9,441.8 C426.8,440.8 427.2,440.1 428.1,439.7 C428.8,439.5 429.3,439.1 429.7,438.5 C429.5,437.9 429.2,437.4 428.8,437.0 C428.9,436.2 430.2,436.2 430.2,435.7 C430.2,434.7 429.4,432.4 429.1,431.3 C428.8,429.5 428.5,427.7 428.2,425.9 C427.9,424.4 427.0,423.6 426.8,422.3 C426.6,421.3 427.6,420.5 427.5,419.5 C426.9,418.9 426.4,418.3 426.0,417.5 C425.9,416.7 426.1,416.0 426.5,415.4 C425.6,408.8 416.4,403.3 409.8,403.2 C406.2,403.1 400.2,402.8 397.0,404.7 C394.9,405.9 393.5,410.3 390.6,407.6 L390.6,407.6 Z M248.7,638.0 C244.1,635.9 239.9,633.7 234.9,632.7 C231.4,631.9 228.3,629.9 224.7,629.2 C216.7,627.8 208.0,626.4 200.4,623.6 C192.1,620.6 183.2,619.5 174.7,617.0 C170.6,615.8 167.0,615.0 162.7,614.8 C158.5,614.5 154.2,612.2 150.0,612.6 C146.5,612.9 144.0,615.6 141.3,617.5 C137.8,620.0 133.9,622.1 130.1,624.2 C126.0,626.4 121.5,627.5 117.5,629.6 C114.2,631.3 111.0,633.1 107.6,634.7 C89.4,643.3 71.9,651.3 55.5,663.2 C60.8,664.8 66.8,663.2 72.0,662.6 C79.5,661.8 86.9,661.2 94.3,659.8 C98.6,659.0 107.1,656.0 111.2,658.3 C114.8,660.4 114.5,665.7 115.0,669.3 C118.5,668.0 121.9,666.6 125.3,665.4 C128.0,664.4 132.4,661.7 135.2,661.7 C142.9,661.4 142.1,672.2 141.3,677.2 C145.8,675.6 150.1,674.6 154.5,672.7 C158.0,671.2 161.8,670.8 165.2,669.0 C173.7,664.5 183.0,661.7 192.1,658.5 C202.3,654.9 212.5,651.2 222.6,647.4 C226.7,645.8 230.8,643.7 235.1,642.4 C239.7,641.0 244.3,640.0 248.7,638.0 L248.7,638.0 Z M349.4,225.7 C348.7,231.8 349.4,237.9 349.6,244.0 C349.8,251.1 349.8,258.2 350.7,265.3 C352.4,278.1 354.7,290.8 359.3,302.9 C363.5,314.0 370.5,321.8 382.4,324.1 C393.1,326.3 403.6,322.6 410.4,314.1 C417.4,305.2 419.6,294.0 423.7,283.7 C425.8,278.7 427.3,273.6 428.9,268.5 C430.0,265.4 435.0,256.6 433.5,253.4 C432.1,250.3 423.9,249.3 421.0,247.5 C416.5,244.8 412.3,239.3 408.8,235.4 C406.5,232.7 405.1,230.7 403.5,234.9 C401.6,240.0 403.0,245.9 401.3,250.9 C399.5,255.8 395.7,251.0 395.4,247.8 C394.6,241.7 395.5,234.8 395.8,228.6 C396.3,217.2 397.1,204.0 407.4,197.0 C417.1,190.3 427.7,188.2 433.1,176.7 C435.3,172.1 437.9,167.3 436.5,162.1 C434.9,156.1 432.6,149.9 430.3,144.2 C426.0,133.2 419.1,123.6 413.1,113.5 C412.3,112.1 412.1,110.4 410.3,110.0 C408.3,109.5 403.6,112.9 401.7,113.5 C396.4,115.0 391.7,111.9 387.0,115.4 C383.3,118.2 380.1,122.3 375.0,122.6 C372.9,122.7 369.9,120.8 368.0,121.2 C365.6,121.8 365.0,125.4 364.0,127.4 C361.9,132.0 359.6,137.7 356.1,141.5 C354.9,142.8 352.8,143.2 351.8,144.3 C350.6,145.7 351.3,148.5 349.6,148.8 C348.6,148.9 347.8,147.6 347.0,147.3 C345.6,146.7 344.2,146.6 342.7,146.7 C340.0,146.8 337.1,147.4 334.7,148.8 C329.0,151.8 326.9,156.5 333.7,159.3 C336.4,160.5 339.4,161.3 342.3,161.6 C345.6,161.8 348.9,160.8 352.0,161.2 C358.2,162.0 360.1,167.1 361.7,172.4 C363.9,179.7 365.7,187.1 368.1,194.3 C370.2,200.2 373.8,206.2 374.9,212.4 C375.5,216.1 374.7,215.9 372.1,218.2 C370.2,220.0 369.1,222.3 367.0,224.1 C361.2,229.1 356.1,227.8 349.4,225.7 L349.4,225.7 Z M724.2,579.7 C724.1,578.4 696.5,580.9 693.4,580.5 C688.1,580.0 682.4,581.5 676.8,581.3 C672.0,581.1 664.9,579.2 660.9,581.6 C659.4,582.5 659.4,583.5 657.0,583.0 C654.8,582.6 652.5,581.1 650.8,579.6 C646.3,575.6 643.5,569.4 640.5,564.2 C634.5,553.8 629.4,543.0 624.4,532.1 C614.2,509.7 604.4,487.1 594.2,464.6 C589.1,453.5 584.2,442.3 578.8,431.4 C576.5,426.7 573.9,421.6 572.1,416.8 C570.2,411.4 567.6,406.4 565.9,401.0 C562.1,389.4 557.7,378.0 554.9,366.2 C554.2,363.2 553.9,360.0 553.0,357.0 C552.1,353.9 550.2,351.2 549.0,348.1 C547.8,345.0 547.8,342.2 547.2,339.0 C546.6,335.8 545.2,332.7 544.1,329.7 C538.7,332.9 532.5,335.9 527.5,339.8 C522.6,343.6 515.5,346.8 517.5,353.7 C519.4,360.0 522.7,365.8 524.7,372.1 C526.9,379.1 529.6,386.0 531.7,393.1 C536.3,408.2 540.3,423.6 544.4,438.8 C546.3,446.0 548.7,453.2 550.1,460.5 C550.8,464.3 550.7,467.7 552.1,471.4 C553.5,475.0 554.7,478.5 555.8,482.2 C557.8,488.8 559.7,495.3 561.9,501.8 C563.1,505.4 564.0,508.9 564.9,512.5 C565.4,514.7 567.1,518.9 566.6,521.1 C565.2,527.7 556.6,521.0 554.6,518.4 C549.8,512.2 546.4,504.7 542.8,497.8 C528.4,470.1 521.4,440.3 514.0,410.1 C512.0,402.2 510.1,394.4 507.9,386.5 C505.7,378.3 505.0,369.7 502.3,361.6 C499.5,353.1 496.6,345.0 494.6,336.3 C493.6,332.3 492.6,328.3 491.8,324.2 C491.3,322.1 491.3,318.1 488.4,317.7 C490.3,331.2 491.0,347.1 496.4,359.8 C501.3,371.3 505.2,387.1 500.2,399.3 C497.8,405.2 494.1,410.2 491.2,415.8 C488.1,422.1 486.0,429.3 483.9,436.0 C479.5,449.8 478.2,464.4 475.3,478.5 C473.7,485.9 473.7,491.0 475.0,498.3 C475.5,500.6 474.7,502.5 476.7,504.0 C478.7,505.5 483.3,505.8 485.7,506.7 C493.2,509.3 499.6,511.3 507.5,512.1 C515.0,512.9 522.0,514.4 529.1,516.9 C541.9,521.3 555.3,524.6 567.8,529.0 C574.7,531.4 581.4,535.7 588.0,538.8 C594.9,542.0 602.2,544.1 608.7,548.1 C615.7,552.4 622.6,557.5 629.2,562.3 C635.4,566.8 638.3,572.4 640.9,579.3 C645.7,592.6 658.0,609.8 646.7,623.2 C650.6,624.9 655.2,625.6 659.0,627.5 C660.3,628.1 660.7,628.7 662.2,629.1 C664.1,629.6 666.6,629.2 668.6,629.3 C671.5,629.5 677.6,631.6 680.4,630.7 C683.1,630.0 683.2,626.1 685.1,624.2 C687.9,621.4 690.6,623.3 694.0,622.9 C699.1,622.5 704.1,621.8 709.2,621.4 C719.5,620.5 729.7,620.3 740.0,620.3 C734.7,614.3 715.0,625.2 714.5,614.4 C713.9,601.9 729.1,605.7 736.5,602.1 C729.8,602.3 723.1,602.3 716.4,602.9 C712.3,603.2 704.5,605.1 702.2,600.6 C699.7,595.8 703.7,590.3 707.4,587.8 C712.6,584.3 718.5,582.1 724.2,579.7 L724.2,579.7 Z M163.2,413.4 C161.9,415.8 163.8,416.8 164.7,418.8 C165.9,421.5 164.7,421.0 164.5,423.6 C164.3,425.3 164.8,426.1 164.7,427.7 C164.7,428.4 163.7,429.3 163.6,430.1 C163.4,431.5 164.1,432.2 164.0,433.2 C164.0,433.7 164.6,433.8 164.5,434.5 C164.4,435.2 162.9,435.6 162.8,436.0 C162.3,438.4 163.7,437.2 163.9,438.3 C164.3,440.1 163.3,440.5 162.7,442.2 C161.7,445.1 162.6,446.5 163.3,449.2 C163.8,451.5 163.0,451.5 162.7,453.8 C162.5,455.1 162.9,455.3 162.9,456.5 C162.9,460.8 161.9,465.3 161.9,469.9 C161.8,480.7 160.9,491.4 160.7,502.2 C160.6,512.8 159.8,523.5 159.4,534.2 C159.1,539.5 158.6,544.7 158.4,549.9 C158.1,556.0 158.7,562.1 158.2,568.1 C157.7,573.6 158.0,579.1 157.8,584.7 C157.7,587.3 156.3,595.2 158.0,597.0 C160.3,599.2 169.3,596.8 172.3,597.0 C177.8,597.3 183.6,598.4 189.0,599.5 C201.7,602.2 214.6,605.6 227.3,608.1 C238.0,610.1 248.0,615.2 257.9,619.5 C257.0,610.4 255.4,601.5 255.1,592.3 C254.8,584.1 255.6,575.9 255.4,567.6 C255.1,550.0 254.1,532.6 254.4,515.0 C254.8,497.1 256.3,478.8 258.8,461.1 C259.9,453.0 260.8,444.3 263.7,436.6 C265.1,433.1 267.2,430.5 266.3,426.6 C265.3,422.5 263.4,418.1 262.0,414.0 C261.0,420.6 257.3,464.6 242.3,451.4 C236.4,446.2 233.7,435.0 232.4,427.7 C230.6,417.8 231.3,407.4 231.3,397.4 C231.4,377.0 233.6,356.2 235.7,335.9 C236.1,331.8 238.2,328.2 233.0,328.4 C228.1,328.6 223.1,329.7 218.2,330.3 C214.0,330.8 209.8,329.6 205.8,330.1 C204.0,330.4 202.4,331.4 200.5,331.7 C198.2,332.1 195.7,331.6 193.4,331.6 C189.4,331.6 184.8,331.5 181.5,334.0 C178.1,336.6 175.1,340.9 173.9,345.0 C172.8,349.2 173.1,353.8 172.4,358.0 C171.7,361.5 171.6,365.8 171.0,369.8 C168.5,366.6 168.7,371.1 168.6,372.5 C168.6,374.1 166.9,377.4 167.3,378.3 C167.6,378.9 169.6,378.6 169.7,379.1 C170.1,380.1 168.9,380.5 168.9,381.3 C168.8,384.1 169.0,387.1 168.9,390.0 C168.3,389.5 167.6,389.0 166.9,388.5 C166.5,389.2 166.4,390.3 166.1,391.0 C165.9,391.4 164.5,391.3 164.4,392.0 C164.3,392.9 166.4,394.7 166.7,395.7 C167.4,397.5 167.9,396.8 166.7,398.7 C165.3,400.9 163.1,401.1 163.5,404.3 C164.2,403.8 164.8,403.1 165.4,402.4 C165.7,404.3 164.9,406.0 164.8,407.9 C164.7,409.2 166.2,414.2 165.1,415.1 C164.6,415.4 163.3,413.5 163.2,413.4 L163.2,413.4 Z M264.6,254.9 C264.6,250.7 258.4,244.2 256.3,240.6 C252.9,235.0 249.2,229.9 244.9,224.9 C240.6,219.8 235.9,215.0 231.7,209.9 C230.0,207.8 228.7,205.3 226.9,203.2 C224.7,200.6 224.2,201.4 221.5,201.5 C219.4,201.6 218.0,201.2 216.1,201.8 C215.1,202.1 214.4,202.6 213.3,202.9 C212.6,203.1 211.7,202.5 210.8,202.8 C208.5,203.6 207.7,205.6 205.0,205.6 C204.6,205.6 203.6,204.8 203.4,204.8 C203.2,204.9 202.4,205.5 202.4,205.5 C202.2,205.6 202.3,206.9 201.8,207.1 C201.0,207.5 200.4,206.2 199.6,206.3 C197.7,206.5 196.2,208.5 194.1,209.0 C191.4,209.6 189.0,208.7 186.4,210.0 C184.3,211.0 183.2,213.3 181.5,210.9 C179.9,214.2 177.0,213.2 174.1,214.6 C170.1,216.6 165.7,217.6 161.4,219.1 C152.6,222.1 143.6,225.3 135.0,228.9 C117.1,236.6 99.8,245.0 82.3,253.2 C65.2,261.2 49.4,271.9 34.0,282.6 C26.5,287.8 19.0,293.3 13.1,300.5 C11.3,302.7 8.3,306.0 9.5,309.1 C10.8,312.3 16.2,314.4 19.2,315.0 C23.2,315.8 27.6,316.1 31.6,316.3 C36.0,316.6 40.7,316.8 45.0,316.7 C53.6,316.6 62.0,315.8 70.6,315.6 C80.3,315.4 89.9,313.3 99.6,313.2 C110.4,313.0 121.0,311.7 131.7,312.1 C152.4,312.9 173.0,313.5 193.8,313.6 C196.4,313.6 198.9,313.3 201.4,313.8 C203.5,314.1 205.0,314.9 207.2,314.7 C209.2,314.6 211.1,313.7 213.2,313.6 C216.0,313.4 218.8,313.9 221.6,313.8 C230.9,313.6 242.0,312.8 251.0,315.7 C254.5,316.9 259.0,320.3 256.8,324.7 C254.7,329.1 249.2,325.5 245.8,327.5 C242.6,329.4 244.4,334.4 244.6,337.5 C245.0,343.2 245.1,348.9 244.9,354.6 C244.6,367.3 243.8,380.0 243.7,392.6 C243.6,398.8 243.7,405.0 244.0,411.1 C244.3,416.5 244.1,422.4 246.0,427.6 C248.6,421.2 248.9,414.0 249.9,407.2 C251.0,399.8 252.1,392.5 253.2,385.1 C253.8,380.7 254.4,354.3 263.0,357.8 C272.1,361.4 269.0,381.7 269.4,389.0 C269.8,395.9 270.5,402.7 272.0,409.4 C272.8,412.6 274.8,425.8 278.8,426.7 C281.7,412.8 284.8,398.9 287.0,384.9 C287.9,378.7 288.7,372.5 289.1,366.2 C289.3,363.0 289.1,355.1 293.8,354.8 C307.6,353.6 298.3,411.9 308.7,419.3 C312.5,411.7 314.0,403.7 315.0,395.3 C315.5,391.5 316.5,387.1 315.9,383.3 C315.1,378.3 314.3,375.2 315.3,370.0 C316.2,365.7 316.8,361.3 317.8,357.1 C318.5,354.1 320.4,352.6 321.4,349.8 C324.2,342.1 324.0,332.3 325.1,324.2 C326.2,316.0 327.4,307.9 326.0,299.6 C324.5,291.4 318.5,288.8 311.7,285.4 C304.8,282.0 298.2,278.2 290.6,276.7 C282.1,275.1 274.3,273.4 265.7,273.0 C250.3,272.2 235.3,273.1 220.1,273.8 C203.1,274.6 186.1,273.6 169.2,273.4 C160.9,273.3 152.6,273.1 144.3,273.2 C140.2,273.3 136.2,274.0 132.1,273.9 C128.5,273.8 121.6,274.9 118.5,273.0 C116.1,271.6 116.1,268.3 118.1,266.5 C120.2,264.7 124.2,264.6 126.7,264.1 C134.8,262.3 142.9,261.3 151.0,259.9 C155.7,259.1 159.7,258.8 164.4,259.0 C169.0,259.3 173.6,258.0 178.3,257.7 C188.1,257.3 197.9,256.8 207.7,256.6 C226.7,256.3 245.5,254.9 264.6,254.9 L264.6,254.9 Z M274.5,440.9 C272.9,441.5 273.3,448.8 273.2,450.2 C272.8,454.6 272.3,459.0 271.9,463.3 C271.0,473.4 270.4,483.5 269.8,493.6 C269.3,503.8 268.6,513.9 268.6,524.0 C268.7,528.4 268.9,532.7 268.8,537.0 C268.7,540.2 267.3,546.2 270.0,548.5 C271.9,550.1 275.5,549.4 277.7,549.2 C281.9,549.0 286.2,548.7 290.5,548.6 C295.4,548.6 300.3,549.1 305.2,549.0 C307.1,549.0 309.2,548.6 311.1,549.0 C312.5,549.3 314.0,550.4 315.2,550.5 C316.2,550.5 317.4,549.6 318.4,549.4 C320.0,549.1 321.9,549.4 323.6,549.4 C324.7,549.4 327.6,548.9 328.6,549.6 C329.7,550.2 329.3,551.8 330.2,552.1 C330.6,552.2 332.7,549.8 333.0,549.6 C334.6,548.9 336.9,549.5 338.6,549.5 C343.5,549.5 348.3,549.2 353.1,549.3 C357.8,549.3 362.4,549.9 366.9,550.4 C369.9,550.8 373.3,549.9 376.5,549.6 C381.5,549.2 386.6,549.3 391.7,549.4 C394.3,549.4 396.8,549.5 399.4,549.5 C400.0,549.5 401.2,549.3 401.8,549.5 C404.1,550.2 402.6,550.2 404.3,551.3 C402.1,549.9 409.1,549.0 409.5,549.0 C412.7,548.9 415.6,550.5 418.3,550.2 C421.2,549.9 424.1,548.1 427.3,548.6 C428.8,548.9 430.0,550.6 431.1,550.7 C432.9,551.1 433.5,549.8 435.1,549.1 C438.3,547.8 442.1,549.0 445.5,548.7 C450.3,548.4 454.9,548.4 459.6,548.4 C468.4,548.2 477.1,548.1 485.8,548.2 C493.8,548.3 500.3,551.5 508.3,551.3 C512.5,551.2 516.7,550.9 520.9,551.0 C524.5,551.0 526.3,553.7 523.6,556.9 C521.8,559.0 518.4,559.2 515.8,559.6 C512.0,560.2 508.2,561.0 504.4,561.7 C495.3,563.2 485.7,563.1 476.5,563.4 C439.0,564.5 401.4,567.9 363.8,568.2 C347.3,568.4 330.6,569.8 314.2,569.1 C305.0,568.8 296.0,570.7 286.8,569.3 C282.9,568.7 279.0,568.4 275.1,568.1 C274.6,568.0 271.6,567.5 271.0,567.7 C269.3,568.5 270.3,567.8 269.6,569.7 C268.4,572.9 268.9,578.0 268.9,581.4 C268.9,586.8 269.2,592.2 269.4,597.6 C269.5,602.7 269.8,607.9 270.1,613.1 C270.3,615.2 269.4,623.2 271.1,624.8 C272.3,626.1 278.3,625.5 279.9,625.1 C281.8,624.7 282.0,624.6 284.1,624.9 C285.7,625.1 286.2,625.0 287.8,624.8 C292.2,624.4 297.3,624.3 301.7,625.1 C305.2,625.7 308.8,624.1 310.1,627.7 C312.4,625.0 312.3,626.5 314.8,627.1 C317.3,627.7 316.5,626.0 318.7,625.8 C320.2,625.6 321.5,626.8 323.2,626.8 C325.9,626.9 328.3,626.1 331.2,626.5 C343.9,628.1 356.8,629.5 369.7,629.6 C375.0,629.7 380.3,629.8 385.6,629.9 C388.3,630.0 390.9,630.3 393.5,630.6 C396.0,630.9 398.0,630.3 400.6,630.2 C406.4,629.9 412.4,630.8 418.2,631.1 C420.9,631.2 424.3,630.8 426.9,631.1 C429.5,631.5 429.7,633.5 431.8,634.6 C432.1,628.2 445.5,632.3 449.1,632.3 C450.4,632.3 452.1,631.7 453.8,631.8 C456.5,632.0 459.3,632.1 462.0,632.2 C466.4,632.3 470.7,632.6 474.8,632.0 C480.3,631.3 486.2,632.1 491.7,632.1 C497.7,632.0 503.7,631.9 509.7,631.7 C515.8,631.5 521.8,631.2 527.9,631.0 C533.1,630.8 538.7,631.2 543.9,630.8 C545.3,630.7 546.6,629.8 547.8,629.7 C549.4,629.6 551.3,630.3 553.2,630.2 C559.3,629.7 565.0,629.6 571.1,629.6 C581.6,629.6 592.6,627.7 602.7,624.9 C607.3,623.6 612.1,623.6 616.8,622.2 C622.1,620.6 627.0,617.8 631.9,615.2 C635.7,613.2 641.1,612.3 639.6,607.2 C637.9,601.8 635.2,596.5 633.2,591.2 C631.5,586.5 630.4,582.0 626.7,578.5 C623.0,575.1 618.2,572.8 614.3,569.6 C605.7,562.7 596.7,558.5 586.5,554.4 C576.3,550.3 566.9,544.2 556.1,541.4 C546.1,538.9 536.5,535.4 526.7,532.8 C516.0,530.0 504.9,528.9 494.1,526.4 C483.7,523.9 473.5,520.4 463.0,518.5 C451.6,516.5 440.2,515.5 428.8,513.0 C419.2,510.9 410.1,506.9 400.4,505.2 C397.6,504.8 394.6,504.5 391.8,503.6 C389.3,502.7 387.4,501.1 384.9,500.4 C378.9,498.8 373.7,496.7 368.1,494.1 C365.7,493.1 364.4,491.7 362.4,490.4 C359.9,488.8 356.8,488.3 354.0,487.4 C348.7,485.7 343.4,484.1 338.7,481.1 C333.8,478.0 329.2,474.6 324.7,471.0 C322.8,469.5 320.7,468.0 318.7,466.5 C316.3,464.8 313.8,464.5 311.1,463.3 C299.3,458.4 294.2,446.8 287.7,436.7 C287.1,444.9 279.3,448.7 274.5,440.9 L274.5,440.9 Z M442.1,297.5 C442.9,293.8 444.1,288.6 439.5,288.4 C439.2,288.3 436.2,289.1 435.8,289.3 C434.3,290.3 433.7,293.6 433.1,295.3 C432.6,296.7 432.2,298.6 431.1,299.7 C429.9,300.7 428.7,300.8 427.6,302.1 C424.4,305.9 422.0,312.6 420.0,317.3 C422.7,316.7 420.7,318.5 421.9,319.5 C423.6,321.1 423.1,320.8 425.6,321.0 C430.0,321.5 432.0,320.3 435.4,317.6 C438.4,315.2 439.3,313.7 441.0,310.4 C443.4,305.6 442.2,302.5 442.1,297.5 C443.3,298.6 444.5,299.7 445.7,300.8 C445.3,299.4 444.9,297.9 444.6,296.5 L442.1,297.5 Z M315.6,8.0 C318.0,0.0 322.3,-0.5 328.2,5.2 C329.1,3.1 330.2,-0.0 332.9,5.6e-13 C334.8,0.0 335.2,1.5 336.5,2.6 C338.0,3.8 339.2,4.3 341.2,4.6 C345.5,5.3 349.5,5.1 353.5,7.0 C357.2,8.8 359.0,11.3 361.8,13.9 C364.5,16.4 366.4,14.8 369.4,16.0 C372.8,17.4 374.3,21.5 375.0,24.8 C375.8,28.9 374.9,30.2 377.8,33.1 C380.4,35.9 381.8,39.4 382.1,43.2 C382.4,46.8 381.6,51.1 379.6,54.1 C377.2,57.5 374.8,56.6 377.8,60.7 C379.4,62.7 379.6,67.1 381.4,68.4 C384.6,70.7 388.8,67.0 391.6,66.0 C395.5,64.8 394.7,66.9 396.4,69.4 C398.9,73.2 400.4,69.3 403.8,70.1 C405.0,70.4 405.4,71.7 405.9,71.9 C407.4,72.5 405.8,72.2 407.5,71.6 C408.7,71.2 407.9,68.9 410.3,70.2 C412.0,71.1 410.7,72.7 411.5,73.9 C413.0,76.2 415.2,74.9 416.3,77.9 C417.4,80.8 418.8,84.8 419.4,88.0 C420.2,92.0 418.4,95.4 418.7,99.2 C419.0,103.1 422.8,105.7 425.2,108.5 C437.1,121.9 442.1,139.5 445.9,156.6 C449.5,172.5 443.2,190.4 430.8,201.2 C424.5,206.6 416.7,209.0 410.7,214.9 C408.0,217.6 408.0,218.5 411.2,220.6 C413.8,222.4 416.2,224.7 419.0,226.1 C426.1,229.7 433.0,232.3 441.0,233.9 C445.0,234.6 449.1,234.3 453.2,234.2 C457.4,234.0 462.2,234.6 466.3,234.1 C469.9,233.7 472.8,230.7 476.6,231.0 C478.1,231.1 479.0,231.7 480.6,231.6 C482.6,231.4 484.2,230.4 486.4,230.4 C489.6,230.5 492.8,230.5 495.9,230.7 C499.5,230.8 503.6,229.8 507.1,230.4 C510.5,231.0 514.5,234.0 517.4,235.8 C521.0,237.9 525.3,240.5 528.5,243.1 C531.5,245.6 533.7,249.6 536.1,252.7 C538.6,256.0 541.5,258.9 544.0,262.2 C553.9,275.0 564.3,290.9 567.4,307.1 C568.2,311.2 568.2,315.2 567.6,319.4 C567.1,323.0 563.6,324.4 563.5,328.4 C563.3,336.4 567.1,345.7 569.4,353.2 C571.7,361.2 574.6,369.0 578.3,376.5 C579.7,379.4 581.5,381.8 582.4,384.8 C583.4,388.5 585.1,392.0 586.3,395.7 C596.7,427.8 612.9,457.7 624.7,489.3 C631.0,506.3 637.7,523.1 644.6,539.9 C648.0,548.1 651.7,556.2 655.4,564.3 C655.8,565.3 656.2,567.4 657.0,568.1 C658.5,569.4 657.2,568.7 659.2,568.5 C660.9,568.3 662.7,567.5 664.5,567.2 C668.7,566.5 673.0,566.4 677.2,566.0 C682.1,565.5 686.4,565.2 691.3,565.5 C695.8,565.7 700.3,564.3 704.8,564.0 C714.5,563.4 724.0,563.7 733.7,563.9 C741.2,564.1 750.9,563.2 757.8,566.7 C764.8,570.2 762.4,578.2 756.5,581.3 C749.4,585.0 741.0,585.5 734.0,589.3 C739.3,590.9 745.0,590.5 750.4,591.8 C753.9,592.6 759.2,593.2 761.9,595.7 C764.4,598.2 764.1,602.4 762.5,605.3 C760.4,608.9 756.4,609.5 752.8,610.8 C754.4,612.9 756.9,612.7 758.4,615.6 C760.3,619.4 759.1,623.4 756.7,626.7 C751.6,633.8 741.3,634.4 733.3,635.4 C725.5,636.4 717.2,636.6 709.3,636.1 C704.8,635.8 700.4,635.5 695.9,634.9 C690.8,634.2 691.3,637.8 689.5,641.4 C687.7,645.0 685.2,646.5 681.2,646.3 C677.0,646.0 672.3,645.8 668.0,645.0 C664.0,644.4 660.5,642.3 656.6,641.4 C653.2,640.6 650.4,639.4 647.1,637.7 C643.3,635.7 641.3,632.5 637.9,630.2 C634.5,627.9 631.0,631.5 627.6,633.3 C619.4,637.7 610.5,639.6 601.6,641.8 C592.5,644.0 583.6,646.7 574.3,648.3 C570.0,649.0 565.9,648.9 561.7,649.3 C556.7,649.9 552.4,651.7 547.4,651.8 C529.6,651.8 511.6,655.0 493.8,655.6 C476.2,656.2 458.2,654.7 440.6,655.9 C431.6,656.5 422.9,655.3 413.9,655.8 C404.7,656.3 395.1,655.8 385.9,655.1 C366.7,653.6 348.2,654.0 329.2,653.0 C319.4,652.5 309.3,651.6 299.6,650.0 C290.1,648.5 279.3,650.3 272.5,642.0 C271.8,645.2 271.6,648.6 269.2,651.2 C266.7,653.9 262.7,655.0 259.3,656.2 C250.8,659.3 242.1,662.3 233.5,665.3 C225.4,668.1 217.1,671.2 208.9,673.7 C200.3,676.5 192.1,679.8 183.6,682.9 C175.9,685.8 167.9,688.1 160.5,691.6 C157.4,693.1 154.2,693.2 151.3,694.5 C147.7,696.2 144.3,697.8 140.4,699.0 C137.1,700.0 134.1,700.7 130.8,702.1 C127.7,703.4 123.2,705.7 119.8,703.9 C117.5,702.7 116.6,699.8 115.8,697.5 C114.9,694.5 115.7,689.4 112.2,689.5 C108.7,689.6 103.9,693.0 100.5,694.1 C96.4,695.5 92.2,697.7 88.1,698.5 C83.9,699.3 80.6,699.0 78.4,695.1 C75.9,690.7 76.3,686.1 77.0,681.3 C69.9,681.3 63.3,682.0 56.1,682.2 C52.2,682.4 48.3,682.5 44.3,682.1 C40.8,681.7 35.5,682.8 32.4,681.2 C26.1,677.9 27.0,668.5 30.2,663.4 C32.0,660.5 34.7,658.6 37.5,656.8 C41.0,654.7 43.6,652.2 46.7,649.5 C44.7,648.1 42.1,648.7 40.1,647.1 C38.6,645.8 37.6,643.7 36.9,641.9 C35.6,638.5 37.3,630.7 34.4,628.7 C32.8,627.7 30.0,628.2 28.2,627.3 C25.8,626.2 24.1,624.1 23.0,621.7 C20.6,616.1 22.7,610.3 25.0,605.1 C16.2,603.6 3.3,603.0 0.8,592.8 C0.0,589.6 -0.0,585.8 1.0,582.6 C2.6,577.9 6.4,577.6 10.7,576.2 C28.4,570.4 45.0,561.0 64.1,559.6 C74.3,558.8 84.6,558.4 94.9,557.4 C105.1,556.3 115.0,554.4 125.4,555.7 C129.7,556.2 134.8,555.7 139.0,556.5 C143.1,557.3 143.6,562.1 140.5,564.9 C137.5,567.6 133.1,565.8 129.5,566.1 C124.4,566.6 120.1,569.0 115.4,570.5 C103.7,574.2 90.9,576.9 78.7,578.2 C72.2,578.9 66.0,579.0 59.6,580.8 C53.8,582.3 48.1,584.1 42.2,585.7 C48.6,587.4 60.9,587.2 63.1,594.9 C64.1,598.6 62.9,603.6 59.7,605.9 C57.9,607.2 53.8,606.6 52.6,608.6 C57.6,609.2 63.4,605.3 66.1,610.8 C69.3,617.1 66.2,622.1 62.2,626.8 C65.7,626.2 69.4,626.9 73.0,626.4 C75.7,626.1 78.3,625.2 80.9,626.1 C82.3,626.5 82.1,627.7 83.8,627.7 C85.0,627.7 86.8,626.4 87.8,625.9 C91.8,624.0 95.9,622.4 100.0,620.8 C105.1,618.8 109.8,617.3 114.8,616.1 C121.8,614.4 128.7,610.0 135.5,607.6 C138.4,606.5 142.0,605.4 143.5,602.5 C144.9,599.4 143.8,594.9 143.7,591.6 C143.5,582.5 143.6,573.3 143.6,564.2 C143.7,556.5 143.9,548.9 144.5,541.2 C145.4,532.1 144.6,522.9 145.0,513.7 C145.3,505.3 144.5,496.9 144.8,488.4 C145.0,479.0 145.5,469.7 145.6,460.3 C145.8,443.4 146.3,426.5 146.7,409.6 C147.0,392.2 148.8,374.8 152.6,357.9 C154.2,350.3 156.4,342.5 159.3,335.3 C160.2,333.0 161.2,332.9 159.0,331.6 C157.6,330.8 156.0,331.7 154.8,331.8 C152.1,332.2 149.7,332.4 146.9,332.2 C131.2,331.3 114.9,332.0 99.3,333.4 C91.1,334.2 82.9,334.9 74.7,335.2 C66.6,335.5 58.4,336.7 50.3,336.1 C36.6,335.1 21.0,336.7 9.3,327.9 C-3.1,318.5 -1.9,301.8 6.1,289.8 C15.0,276.6 29.8,269.0 42.3,259.7 C54.5,250.6 68.8,243.9 82.1,236.5 C110.6,220.8 141.2,206.2 171.9,195.3 C203.1,184.2 234.5,171.5 268.5,173.6 C285.7,174.7 304.9,175.4 320.1,184.5 C328.3,189.4 336.1,194.5 343.1,201.0 C346.4,204.0 349.3,207.8 352.8,210.6 C356.0,213.1 359.2,211.4 362.9,210.4 C360.3,201.9 357.7,193.4 355.0,184.9 C351.4,187.8 346.4,188.8 341.7,187.8 C335.9,186.6 336.4,184.2 336.9,179.3 C337.1,177.0 337.8,177.4 335.8,175.9 C334.2,174.8 331.2,174.4 329.3,173.4 C324.7,170.8 320.7,167.1 318.9,161.9 C317.2,156.8 318.4,152.1 319.6,147.0 C320.9,140.9 317.6,143.4 313.8,140.6 C312.1,139.4 311.5,138.3 311.8,136.2 C312.0,134.5 315.4,132.1 315.2,130.5 C315.0,128.5 313.9,128.7 312.3,127.5 C310.6,126.2 309.4,124.6 308.6,122.5 C307.0,118.1 310.3,115.4 311.7,111.3 C312.3,109.4 313.0,107.7 314.3,106.0 C316.6,103.1 317.5,103.2 320.8,103.2 C323.5,103.2 323.5,103.0 325.6,100.5 C326.4,99.5 327.2,98.6 327.8,97.5 C329.0,95.7 329.4,96.0 328.1,94.6 C324.2,90.3 322.5,97.0 319.1,96.6 C315.1,96.1 314.4,89.8 311.9,87.7 C310.2,86.3 308.2,86.8 306.3,85.8 C304.0,84.6 303.5,82.3 302.0,80.4 C299.6,77.3 296.0,76.7 294.4,72.7 C293.4,70.5 293.3,68.1 293.1,65.7 C292.9,62.3 292.0,59.6 291.0,56.4 C290.0,53.1 290.2,50.7 291.9,47.6 C293.6,44.5 293.8,43.4 293.3,39.9 C293.0,37.2 292.9,34.8 294.3,32.4 C295.8,29.8 296.1,28.4 296.6,25.5 C297.1,22.9 297.9,21.0 300.4,19.9 C302.1,19.2 304.0,20.0 305.2,18.3 C306.4,16.7 306.0,14.0 307.3,12.2 C309.3,9.2 312.3,8.7 315.6,8.0 L315.6,8.0 Z" /><path d="M415.4,141.5 C414.3,138.7 410.3,126.0 416.8,125.9 C421.9,125.9 420.3,136.9 420.4,139.6 C420.5,144.7 425.8,145.4 427.7,150.0 C430.1,155.4 428.5,161.7 424.9,166.1 C422.1,169.4 416.8,173.3 413.0,169.2 C408.8,164.6 412.9,162.1 415.8,159.3 C420.1,155.2 411.9,154.0 409.8,150.7 C406.2,145.0 410.2,142.1 415.4,141.5" /><path d="M397.0,144.3 C396.4,146.9 396.5,152.9 393.7,154.3 C388.9,156.7 387.8,145.3 387.9,142.8 C387.9,140.1 388.8,133.8 392.8,134.6 C397.2,135.5 394.7,143.7 397.0,144.3" /><path d="M414.8,177.4 C421.8,177.6 421.4,186.0 414.7,186.3 C408.4,186.6 408.5,177.2 414.8,177.4" /><path d="M429.7,302.6 C429.1,305.4 427.6,308.0 425.3,309.8 C425.8,308.7 428.2,302.1 429.7,302.6" /></g></g></svg>